<svg xmlns="http://www.w3.org/2000/svg" xmlns:xlink="http://www.w3.org/1999/xlink" xmlns:lucid="lucid" width="1100" height="470"><g transform="translate(-220 -520)" lucid:page-tab-id="0_0"><path d="M0 0h1760v1360H0z" fill="#fff"/><path d="M360.56 540h29.88v45h-29.88z" stroke="#000" stroke-opacity="0" stroke-width=".15" fill="#046eab"/><path d="M423.56 660h-96.12L320 631.07h111z" stroke="#000" stroke-opacity="0" stroke-width=".15" fill="#19457a"/><path d="M327.47 660L320 631.05 360.57 585h29.87z" stroke="#000" stroke-opacity="0" stroke-width=".15" fill="#1590cf"/><path d="M423.52 660l-43.75-44.97 18.13-21.46L431 631.1z" stroke="#000" stroke-opacity="0" stroke-width=".15" fill="#046eab"/><path d="M397.92 593.52l-7.44-8.52v-45H360.5v45L320 631.08l7.44 28.92h96.12l7.44-28.92z" stroke="#000" stroke-opacity="0" stroke-width=".15" fill-opacity="0"/><use xlink:href="#a" transform="matrix(1,0,0,1,290,669) translate(7.299999999999997 14.4)"/><use xlink:href="#b" transform="matrix(1,0,0,1,290,669) translate(74.15 14.4)"/><path d="M260 724.33a6 6 0 0 1 6-6h228a6 6 0 0 1 6 6v131.34a6 6 0 0 1-6 6H266a6 6 0 0 1-6-6z" stroke="#000" stroke-opacity="0" fill="#fff" fill-opacity="0"/><use xlink:href="#c" transform="matrix(1,0,0,1,265,723.3333333333334) translate(7.888888888888914 36.9375)"/><use xlink:href="#d" transform="matrix(1,0,0,1,265,723.3333333333334) translate(60.05555555555557 36.9375)"/><use xlink:href="#e" transform="matrix(1,0,0,1,265,723.3333333333334) translate(87.83333333333334 36.9375)"/><use xlink:href="#f" transform="matrix(1,0,0,1,265,723.3333333333334) translate(174.38888888888889 36.9375)"/><use xlink:href="#g" transform="matrix(1,0,0,1,265,723.3333333333334) translate(18.138888888888914 60.9375)"/><use xlink:href="#h" transform="matrix(1,0,0,1,265,723.3333333333334) translate(39.194444444444464 60.9375)"/><use xlink:href="#i" transform="matrix(1,0,0,1,265,723.3333333333334) translate(86.97222222222223 60.9375)"/><use xlink:href="#j" transform="matrix(1,0,0,1,265,723.3333333333334) translate(127.97222222222223 60.9375)"/><use xlink:href="#k" transform="matrix(1,0,0,1,265,723.3333333333334) translate(5.694444444444457 84.9375)"/><use xlink:href="#l" transform="matrix(1,0,0,1,265,723.3333333333334) translate(75.63888888888889 84.9375)"/><use xlink:href="#m" transform="matrix(1,0,0,1,265,723.3333333333334) translate(154.4722222222222 84.9375)"/><use xlink:href="#n" transform="matrix(1,0,0,1,265,723.3333333333334) translate(84.52777777777779 108.9375)"/><use xlink:href="#o" transform="matrix(1,0,0,1,265,723.3333333333334) translate(104.47222222222223 108.9375)"/><path d="M240 886a6 6 0 0 1 6-6h348a6 6 0 0 1 6 6v78a6 6 0 0 1-6 6H246a6 6 0 0 1-6-6z" stroke="#000" stroke-opacity="0" fill="#fff" fill-opacity="0"/><g><use xlink:href="#p" transform="matrix(1,0,0,1,245,885) translate(0 11.375)"/><use xlink:href="#q" transform="matrix(1,0,0,1,245,885) translate(59.74305555555556 11.375)"/><use xlink:href="#r" transform="matrix(1,0,0,1,245,885) translate(145.0902777777778 11.375)"/><use xlink:href="#s" transform="matrix(1,0,0,1,245,885) translate(238.97222222222229 11.375)"/><use xlink:href="#t" transform="matrix(1,0,0,1,245,885) translate(0 25.59722222222222)"/><use xlink:href="#u" transform="matrix(1,0,0,1,245,885) translate(119.48611111111116 25.59722222222222)"/><use xlink:href="#v" transform="matrix(1,0,0,1,245,885) translate(0 39.81944444444444)"/><use xlink:href="#w" transform="matrix(1,0,0,1,245,885) translate(34.13888888888889 39.81944444444444)"/><use xlink:href="#u" transform="matrix(1,0,0,1,245,885) translate(230.43750000000009 39.81944444444444)"/><use xlink:href="#v" transform="matrix(1,0,0,1,245,885) translate(0 54.041666666666664)"/><use xlink:href="#x" transform="matrix(1,0,0,1,245,885) translate(34.13888888888889 54.041666666666664)"/></g><path d="M1140 546a6 6 0 0 1 6-6h148a6 6 0 0 1 6 6v108a6 6 0 0 1-6 6h-148a6 6 0 0 1-6-6z" stroke="#3a414a" fill="#fff"/><g><use xlink:href="#y" transform="matrix(1,0,0,1,1152,552) translate(3.216049382716051 26.77777777777778)"/><use xlink:href="#z" transform="matrix(1,0,0,1,1152,552) translate(45.19135802469136 26.77777777777778)"/><use xlink:href="#A" transform="matrix(1,0,0,1,1152,552) translate(15.037037037037038 53.44444444444445)"/><use xlink:href="#B" transform="matrix(1,0,0,1,1152,552) translate(38.4320987654321 53.44444444444445)"/><use xlink:href="#C" transform="matrix(1,0,0,1,1152,552) translate(8.802469135802461 80.11111111111111)"/></g><path d="M545.42 600.5h-141.3v-1h141.3zm577.73 0h-125.4v-1h125.4z" stroke="#3a414a" stroke-width=".05" fill="#3a414a"/><path d="M404.14 600.5l-.95-1h.94z" fill="#3a414a"/><path d="M404.17 600.56l-1.04-1.08h1.04zm-.92-1.03l.87.9v-.9z" stroke="#3a414a" stroke-width=".05" fill="#3a414a"/><path d="M1137.92 600l-14.27 4.64v-9.28z" fill="#3a414a"/><path d="M1139.54 600l-16.4 5.32v-10.64zm-15.4 3.95l12.16-3.95-12.15-3.95z" stroke="#3a414a" stroke-width=".05" fill="#3a414a"/><g><use xlink:href="#D" transform="matrix(1,0,0,1,545.4186406974445,590.625) translate(0 14.84375)"/></g><path d="M660 660h307.73v245.2H660z" fill="#fffffe"/><g><use xlink:href="#E" transform="matrix(1,0,0,1,665,665) translate(0 12.8)"/><use xlink:href="#F" transform="matrix(1,0,0,1,665,665) translate(30.133333333333333 12.8)"/><use xlink:href="#G" transform="matrix(1,0,0,1,665,665) translate(100.17777777777778 12.8)"/><use xlink:href="#H" transform="matrix(1,0,0,1,665,665) translate(168.48888888888888 12.8)"/><use xlink:href="#I" transform="matrix(1,0,0,1,665,665) translate(0 36.800000000000004)"/><use xlink:href="#J" transform="matrix(1,0,0,1,665,665) translate(0 60.80000000000001)"/><use xlink:href="#K" transform="matrix(1,0,0,1,665,665) translate(0 84.80000000000001)"/><use xlink:href="#L" transform="matrix(1,0,0,1,665,665) translate(64.75555555555556 84.80000000000001)"/><use xlink:href="#M" transform="matrix(1,0,0,1,665,665) translate(0 108.80000000000001)"/><use xlink:href="#J" transform="matrix(1,0,0,1,665,665) translate(210.79999999999995 108.80000000000001)"/><use xlink:href="#K" transform="matrix(1,0,0,1,665,665) translate(0 132.8)"/><use xlink:href="#N" transform="matrix(1,0,0,1,665,665) translate(64.75555555555556 132.8)"/><use xlink:href="#O" transform="matrix(1,0,0,1,665,665) translate(172.53333333333333 132.8)"/><use xlink:href="#J" transform="matrix(1,0,0,1,665,665) translate(290.0444444444444 132.8)"/><use xlink:href="#P" transform="matrix(1,0,0,1,665,665) translate(0 156.80000000000004)"/><use xlink:href="#Q" transform="matrix(1,0,0,1,665,665) translate(77.11111111111111 156.80000000000004)"/><use xlink:href="#R" transform="matrix(1,0,0,1,665,665) translate(0 180.80000000000004)"/><use xlink:href="#S" transform="matrix(1,0,0,1,665,665) translate(17.77777777777778 180.80000000000004)"/><use xlink:href="#T" transform="matrix(1,0,0,1,665,665) translate(117.82222222222222 180.80000000000004)"/><use xlink:href="#U" transform="matrix(1,0,0,1,665,665) translate(126.71111111111111 180.80000000000004)"/><use xlink:href="#R" transform="matrix(1,0,0,1,665,665) translate(0 204.80000000000004)"/><use xlink:href="#V" transform="matrix(1,0,0,1,665,665) translate(17.77777777777778 204.80000000000004)"/><use xlink:href="#T" transform="matrix(1,0,0,1,665,665) translate(77.86666666666667 204.80000000000004)"/><use xlink:href="#W" transform="matrix(1,0,0,1,665,665) translate(86.75555555555556 204.80000000000004)"/><use xlink:href="#X" transform="matrix(1,0,0,1,665,665) translate(0 228.80000000000004)"/></g><defs><path d="M30-248c118-7 216 8 213 122C240-48 200 0 122 0H30v-248zM63-27c89 8 146-16 146-99s-60-101-146-95v194" id="Y"/><path d="M100-194c62-1 85 37 85 99 1 63-27 99-86 99S16-35 15-95c0-66 28-99 85-99zM99-20c44 1 53-31 53-75 0-43-8-75-51-75s-53 32-53 75 10 74 51 75" id="Z"/><path d="M210-169c-67 3-38 105-44 169h-31v-121c0-29-5-50-35-48C34-165 62-65 56 0H25l-1-190h30c1 10-1 24 2 32 10-44 99-50 107 0 11-21 27-35 58-36 85-2 47 119 55 194h-31v-121c0-29-5-49-35-48" id="aa"/><path d="M24-231v-30h32v30H24zM24 0v-190h32V0H24" id="ab"/><path d="M117-194c89-4 53 116 60 194h-32v-121c0-31-8-49-39-48C34-167 62-67 57 0H25l-1-190h30c1 10-1 24 2 32 11-22 29-35 61-36" id="ac"/><g id="a"><use transform="matrix(0.05,0,0,0.05,0,0)" xlink:href="#Y"/><use transform="matrix(0.05,0,0,0.05,12.950000000000001,0)" xlink:href="#Z"/><use transform="matrix(0.05,0,0,0.05,22.950000000000003,0)" xlink:href="#aa"/><use transform="matrix(0.05,0,0,0.05,37.900000000000006,0)" xlink:href="#ab"/><use transform="matrix(0.05,0,0,0.05,41.85000000000001,0)" xlink:href="#ac"/><use transform="matrix(0.05,0,0,0.05,51.85,0)" xlink:href="#Z"/></g><path d="M266 0h-40l-56-210L115 0H75L2-248h35L96-30l15-64 43-154h32l59 218 59-218h35" id="ad"/><path d="M114-163C36-179 61-72 57 0H25l-1-190h30c1 12-1 29 2 39 6-27 23-49 58-41v29" id="ae"/><path d="M143 0L79-87 56-68V0H24v-261h32v163l83-92h37l-77 82L181 0h-38" id="af"/><path d="M135-143c-3-34-86-38-87 0 15 53 115 12 119 90S17 21 10-45l28-5c4 36 97 45 98 0-10-56-113-15-118-90-4-57 82-63 122-42 12 7 21 19 24 35" id="ag"/><path d="M115-194c55 1 70 41 70 98S169 2 115 4C84 4 66-9 55-30l1 105H24l-1-265h31l2 30c10-21 28-34 59-34zm-8 174c40 0 45-34 45-75s-6-73-45-74c-42 0-51 32-51 76 0 43 10 73 51 73" id="ah"/><path d="M141-36C126-15 110 5 73 4 37 3 15-17 15-53c-1-64 63-63 125-63 3-35-9-54-41-54-24 1-41 7-42 31l-33-3c5-37 33-52 76-52 45 0 72 20 72 64v82c-1 20 7 32 28 27v20c-31 9-61-2-59-35zM48-53c0 20 12 33 32 33 41-3 63-29 60-74-43 2-92-5-92 41" id="ai"/><path d="M96-169c-40 0-48 33-48 73s9 75 48 75c24 0 41-14 43-38l32 2c-6 37-31 61-74 61-59 0-76-41-82-99-10-93 101-131 147-64 4 7 5 14 7 22l-32 3c-4-21-16-35-41-35" id="aj"/><path d="M100-194c63 0 86 42 84 106H49c0 40 14 67 53 68 26 1 43-12 49-29l28 8c-11 28-37 45-77 45C44 4 14-33 15-96c1-61 26-98 85-98zm52 81c6-60-76-77-97-28-3 7-6 17-6 28h103" id="ak"/><g id="b"><use transform="matrix(0.05,0,0,0.05,0,0)" xlink:href="#ad"/><use transform="matrix(0.05,0,0,0.05,16.599999999999998,0)" xlink:href="#Z"/><use transform="matrix(0.05,0,0,0.05,26.599999999999994,0)" xlink:href="#ae"/><use transform="matrix(0.05,0,0,0.05,32.55,0)" xlink:href="#af"/><use transform="matrix(0.05,0,0,0.05,41.55,0)" xlink:href="#ag"/><use transform="matrix(0.05,0,0,0.05,50.55,0)" xlink:href="#ah"/><use transform="matrix(0.05,0,0,0.05,60.54999999999999,0)" xlink:href="#ai"/><use transform="matrix(0.05,0,0,0.05,70.55,0)" xlink:href="#aj"/><use transform="matrix(0.05,0,0,0.05,79.55,0)" xlink:href="#ak"/></g><path fill="#3a414a" d="M233-177c-1 41-23 64-60 70L243 0h-38l-65-103H63V0H30v-248c88 3 205-21 203 71zM63-129c60-2 137 13 137-47 0-61-80-42-137-45v92" id="al"/><path fill="#3a414a" d="M84 4C-5 8 30-112 23-190h32v120c0 31 7 50 39 49 72-2 45-101 50-169h31l1 190h-30c-1-10 1-25-2-33-11 22-28 36-60 37" id="am"/><path fill="#3a414a" d="M117-194c89-4 53 116 60 194h-32v-121c0-31-8-49-39-48C34-167 62-67 57 0H25l-1-190h30c1 10-1 24 2 32 11-22 29-35 61-36" id="an"/><path fill="#3a414a" d="M135-143c-3-34-86-38-87 0 15 53 115 12 119 90S17 21 10-45l28-5c4 36 97 45 98 0-10-56-113-15-118-90-4-57 82-63 122-42 12 7 21 19 24 35" id="ao"/><g id="c"><use transform="matrix(0.055555555555555546,0,0,0.055555555555555546,0,0)" xlink:href="#al"/><use transform="matrix(0.055555555555555546,0,0,0.055555555555555546,14.388888888888886,0)" xlink:href="#am"/><use transform="matrix(0.055555555555555546,0,0,0.055555555555555546,25.499999999999993,0)" xlink:href="#an"/><use transform="matrix(0.055555555555555546,0,0,0.055555555555555546,36.6111111111111,0)" xlink:href="#ao"/></g><path fill="#3a414a" d="M100-194c62-1 85 37 85 99 1 63-27 99-86 99S16-35 15-95c0-66 28-99 85-99zM99-20c44 1 53-31 53-75 0-43-8-75-51-75s-53 32-53 75 10 74 51 75" id="ap"/><g id="d"><use transform="matrix(0.055555555555555546,0,0,0.055555555555555546,0,0)" xlink:href="#ap"/><use transform="matrix(0.055555555555555546,0,0,0.055555555555555546,11.111111111111109,0)" xlink:href="#an"/></g><path fill="#3a414a" d="M212-179c-10-28-35-45-73-45-59 0-87 40-87 99 0 60 29 101 89 101 43 0 62-24 78-52l27 14C228-24 195 4 139 4 59 4 22-46 18-125c-6-104 99-153 187-111 19 9 31 26 39 46" id="aq"/><path fill="#3a414a" d="M210-169c-67 3-38 105-44 169h-31v-121c0-29-5-50-35-48C34-165 62-65 56 0H25l-1-190h30c1 10-1 24 2 32 10-44 99-50 107 0 11-21 27-35 58-36 85-2 47 119 55 194h-31v-121c0-29-5-49-35-48" id="ar"/><path fill="#3a414a" d="M115-194c55 1 70 41 70 98S169 2 115 4C84 4 66-9 55-30l1 105H24l-1-265h31l2 30c10-21 28-34 59-34zm-8 174c40 0 45-34 45-75s-6-73-45-74c-42 0-51 32-51 76 0 43 10 73 51 73" id="as"/><path fill="#3a414a" d="M59-47c-2 24 18 29 38 22v24C64 9 27 4 27-40v-127H5v-23h24l9-43h21v43h35v23H59v120" id="at"/><path fill="#3a414a" d="M100-194c63 0 86 42 84 106H49c0 40 14 67 53 68 26 1 43-12 49-29l28 8c-11 28-37 45-77 45C44 4 14-33 15-96c1-61 26-98 85-98zm52 81c6-60-76-77-97-28-3 7-6 17-6 28h103" id="au"/><g id="e"><use transform="matrix(0.055555555555555546,0,0,0.055555555555555546,0,0)" xlink:href="#aq"/><use transform="matrix(0.055555555555555546,0,0,0.055555555555555546,14.388888888888886,0)" xlink:href="#ap"/><use transform="matrix(0.055555555555555546,0,0,0.055555555555555546,25.499999999999993,0)" xlink:href="#ar"/><use transform="matrix(0.055555555555555546,0,0,0.055555555555555546,42.1111111111111,0)" xlink:href="#as"/><use transform="matrix(0.055555555555555546,0,0,0.055555555555555546,53.22222222222221,0)" xlink:href="#am"/><use transform="matrix(0.055555555555555546,0,0,0.055555555555555546,64.33333333333331,0)" xlink:href="#at"/><use transform="matrix(0.055555555555555546,0,0,0.055555555555555546,69.88888888888887,0)" xlink:href="#au"/></g><path fill="#3a414a" d="M190 0L58-211 59 0H30v-248h39L202-35l-2-213h31V0h-41" id="av"/><path fill="#3a414a" d="M85-194c31 0 48 13 60 33l-1-100h32l1 261h-30c-2-10 0-23-3-31C134-8 116 4 85 4 32 4 16-35 15-94c0-66 23-100 70-100zm9 24c-40 0-46 34-46 75 0 40 6 74 45 74 42 0 51-32 51-76 0-42-9-74-50-73" id="aw"/><g id="f"><use transform="matrix(0.055555555555555546,0,0,0.055555555555555546,0,0)" xlink:href="#av"/><use transform="matrix(0.055555555555555546,0,0,0.055555555555555546,14.388888888888886,0)" xlink:href="#ap"/><use transform="matrix(0.055555555555555546,0,0,0.055555555555555546,25.499999999999993,0)" xlink:href="#aw"/><use transform="matrix(0.055555555555555546,0,0,0.055555555555555546,36.6111111111111,0)" xlink:href="#au"/></g><path fill="#3a414a" d="M24-231v-30h32v30H24zM24 0v-190h32V0H24" id="ax"/><g id="g"><use transform="matrix(0.055555555555555546,0,0,0.055555555555555546,0,0)" xlink:href="#ax"/><use transform="matrix(0.055555555555555546,0,0,0.055555555555555546,4.388888888888888,0)" xlink:href="#an"/></g><path fill="#3a414a" d="M143 4C61 4 22-44 18-125c-5-107 100-154 193-111 17 8 29 25 37 43l-32 9c-13-25-37-40-76-40-61 0-88 39-88 99 0 61 29 100 91 101 35 0 62-11 79-27v-45h-74v-28h105v86C228-13 192 4 143 4" id="ay"/><path fill="#3a414a" d="M194 0L95-120 63-95V0H30v-248h33v124l119-124h40L117-140 236 0h-42" id="az"/><path fill="#3a414a" d="M30 0v-248h187v28H63v79h144v27H63v87h162V0H30" id="aA"/><g id="h"><use transform="matrix(0.055555555555555546,0,0,0.055555555555555546,0,0)" xlink:href="#ay"/><use transform="matrix(0.055555555555555546,0,0,0.055555555555555546,15.555555555555554,0)" xlink:href="#az"/><use transform="matrix(0.055555555555555546,0,0,0.055555555555555546,28.888888888888882,0)" xlink:href="#aA"/></g><path fill="#3a414a" d="M206 0h-36l-40-164L89 0H53L-1-190h32L70-26l43-164h34l41 164 42-164h31" id="aB"/><path fill="#3a414a" d="M106-169C34-169 62-67 57 0H25v-261h32l-1 103c12-21 28-36 61-36 89 0 53 116 60 194h-32v-121c2-32-8-49-39-48" id="aC"/><g id="i"><use transform="matrix(0.055555555555555546,0,0,0.055555555555555546,0,0)" xlink:href="#aB"/><use transform="matrix(0.055555555555555546,0,0,0.055555555555555546,14.388888888888886,0)" xlink:href="#ax"/><use transform="matrix(0.055555555555555546,0,0,0.055555555555555546,18.777777777777775,0)" xlink:href="#at"/><use transform="matrix(0.055555555555555546,0,0,0.055555555555555546,24.33333333333333,0)" xlink:href="#aC"/></g><path fill="#3a414a" d="M266 0h-40l-56-210L115 0H75L2-248h35L96-30l15-64 43-154h32l59 218 59-218h35" id="aD"/><path fill="#3a414a" d="M114-163C36-179 61-72 57 0H25l-1-190h30c1 12-1 29 2 39 6-27 23-49 58-41v29" id="aE"/><path fill="#3a414a" d="M143 0L79-87 56-68V0H24v-261h32v163l83-92h37l-77 82L181 0h-38" id="aF"/><path fill="#3a414a" d="M24 0v-261h32V0H24" id="aG"/><path fill="#3a414a" d="M141-36C126-15 110 5 73 4 37 3 15-17 15-53c-1-64 63-63 125-63 3-35-9-54-41-54-24 1-41 7-42 31l-33-3c5-37 33-52 76-52 45 0 72 20 72 64v82c-1 20 7 32 28 27v20c-31 9-61-2-59-35zM48-53c0 20 12 33 32 33 41-3 63-29 60-74-43 2-92-5-92 41" id="aH"/><g id="j"><use transform="matrix(0.055555555555555546,0,0,0.055555555555555546,0,0)" xlink:href="#aD"/><use transform="matrix(0.055555555555555546,0,0,0.055555555555555546,18.44444444444444,0)" xlink:href="#ap"/><use transform="matrix(0.055555555555555546,0,0,0.055555555555555546,29.55555555555555,0)" xlink:href="#aE"/><use transform="matrix(0.055555555555555546,0,0,0.055555555555555546,36.16666666666666,0)" xlink:href="#aF"/><use transform="matrix(0.055555555555555546,0,0,0.055555555555555546,46.16666666666666,0)" xlink:href="#aG"/><use transform="matrix(0.055555555555555546,0,0,0.055555555555555546,50.55555555555554,0)" xlink:href="#ap"/><use transform="matrix(0.055555555555555546,0,0,0.055555555555555546,61.66666666666666,0)" xlink:href="#aH"/><use transform="matrix(0.055555555555555546,0,0,0.055555555555555546,72.77777777777776,0)" xlink:href="#aw"/></g><path fill="#3a414a" d="M33 0v-248h34V0H33" id="aI"/><path fill="#3a414a" d="M179-190L93 31C79 59 56 82 12 73V49c39 6 53-20 64-50L1-190h34L92-34l54-156h33" id="aJ"/><g id="k"><use transform="matrix(0.055555555555555546,0,0,0.055555555555555546,0,0)" xlink:href="#aI"/><use transform="matrix(0.055555555555555546,0,0,0.055555555555555546,5.5555555555555545,0)" xlink:href="#aw"/><use transform="matrix(0.055555555555555546,0,0,0.055555555555555546,16.666666666666664,0)" xlink:href="#au"/><use transform="matrix(0.055555555555555546,0,0,0.055555555555555546,27.77777777777777,0)" xlink:href="#an"/><use transform="matrix(0.055555555555555546,0,0,0.055555555555555546,38.88888888888888,0)" xlink:href="#at"/><use transform="matrix(0.055555555555555546,0,0,0.055555555555555546,44.444444444444436,0)" xlink:href="#ax"/><use transform="matrix(0.055555555555555546,0,0,0.055555555555555546,48.83333333333332,0)" xlink:href="#at"/><use transform="matrix(0.055555555555555546,0,0,0.055555555555555546,54.38888888888888,0)" xlink:href="#aJ"/></g><path fill="#3a414a" d="M115-194c53 0 69 39 70 98 0 66-23 100-70 100C84 3 66-7 56-30L54 0H23l1-261h32v101c10-23 28-34 59-34zm-8 174c40 0 45-34 45-75 0-40-5-75-45-74-42 0-51 32-51 76 0 43 10 73 51 73" id="aK"/><g id="l"><use transform="matrix(0.055555555555555546,0,0,0.055555555555555546,0,0)" xlink:href="#aA"/><use transform="matrix(0.055555555555555546,0,0,0.055555555555555546,13.33333333333333,0)" xlink:href="#an"/><use transform="matrix(0.055555555555555546,0,0,0.055555555555555546,24.44444444444444,0)" xlink:href="#aH"/><use transform="matrix(0.055555555555555546,0,0,0.055555555555555546,35.55555555555555,0)" xlink:href="#aK"/><use transform="matrix(0.055555555555555546,0,0,0.055555555555555546,46.66666666666666,0)" xlink:href="#aG"/><use transform="matrix(0.055555555555555546,0,0,0.055555555555555546,51.05555555555554,0)" xlink:href="#au"/><use transform="matrix(0.055555555555555546,0,0,0.055555555555555546,62.16666666666666,0)" xlink:href="#aw"/></g><path fill="#3a414a" d="M87 75C49 33 22-17 22-94c0-76 28-126 65-167h31c-38 41-64 92-64 168S80 34 118 75H87" id="aL"/><path fill="#3a414a" d="M30-248c118-7 216 8 213 122C240-48 200 0 122 0H30v-248zM63-27c89 8 146-16 146-99s-60-101-146-95v194" id="aM"/><path fill="#3a414a" d="M101-234c-31-9-42 10-38 44h38v23H63V0H32v-167H5v-23h27c-7-52 17-82 69-68v24" id="aN"/><g id="m"><use transform="matrix(0.055555555555555546,0,0,0.055555555555555546,0,0)" xlink:href="#aL"/><use transform="matrix(0.055555555555555546,0,0,0.055555555555555546,6.61111111111111,0)" xlink:href="#aM"/><use transform="matrix(0.055555555555555546,0,0,0.055555555555555546,20.999999999999996,0)" xlink:href="#au"/><use transform="matrix(0.055555555555555546,0,0,0.055555555555555546,32.11111111111111,0)" xlink:href="#aN"/><use transform="matrix(0.055555555555555546,0,0,0.055555555555555546,37.666666666666664,0)" xlink:href="#aH"/><use transform="matrix(0.055555555555555546,0,0,0.055555555555555546,48.77777777777777,0)" xlink:href="#am"/><use transform="matrix(0.055555555555555546,0,0,0.055555555555555546,59.88888888888888,0)" xlink:href="#aG"/><use transform="matrix(0.055555555555555546,0,0,0.055555555555555546,64.27777777777777,0)" xlink:href="#at"/></g><g id="n"><use transform="matrix(0.055555555555555546,0,0,0.055555555555555546,0,0)" xlink:href="#ax"/><use transform="matrix(0.055555555555555546,0,0,0.055555555555555546,4.388888888888888,0)" xlink:href="#ao"/></g><path fill="#3a414a" d="M33-261c38 41 65 92 65 168S71 34 33 75H2C39 34 66-17 66-93S39-220 2-261h31" id="aO"/><g id="o"><use transform="matrix(0.055555555555555546,0,0,0.055555555555555546,0,0)" xlink:href="#at"/><use transform="matrix(0.055555555555555546,0,0,0.055555555555555546,5.5555555555555545,0)" xlink:href="#aE"/><use transform="matrix(0.055555555555555546,0,0,0.055555555555555546,12.166666666666664,0)" xlink:href="#am"/><use transform="matrix(0.055555555555555546,0,0,0.055555555555555546,23.27777777777777,0)" xlink:href="#au"/><use transform="matrix(0.055555555555555546,0,0,0.055555555555555546,34.38888888888888,0)" xlink:href="#aO"/></g><path d="M1048-32c-2 300-135 456-433 456-222-1-358-88-400-267l184-25c22 99 100 157 222 156 184-2 248-125 248-315 0-64 3-133-2-194C807-100 706-13 524-12c-306 0-381-228-381-537 0-318 85-550 400-550 164 0 271 83 325 202h3c1-60 3-134 12-185h171c-13 339-4 702-6 1050zM585-145c210-8 284-178 284-406 0-192-52-331-177-392-33-16-69-22-104-22-223 2-259 184-259 414 0 229 31 415 256 406" id="aP"/><path d="M631 20c-350 0-501-215-501-562 0-355 162-560 502-560 250 0 399 118 446 323l-192 14c-23-124-109-196-262-196-242 0-305 171-305 415 1 245 61 427 304 427 151 0 248-77 267-215l190 12C1039-107 883 20 631 20" id="aQ"/><path d="M736-142h380V0H134v-142h422v-1200H267v-142h469v1342" id="aR"/><path d="M615-1102c343 0 484 203 482 560-1 347-147 562-488 562-336 0-475-219-479-562-4-349 156-560 485-560zm-8 989c240 0 301-180 301-429 0-245-55-427-290-427-236 0-299 181-299 427 0 243 61 429 288 429" id="aS"/><path d="M528 20c-247 0-343-132-343-381v-721h180v686c-4 177 45 284 224 277 194-8 279-136 279-336v-627h181c3 360-6 732 6 1082H885c-4-54-7-126-8-185h-3C809-64 714 20 528 20" id="aT"/><path d="M865-914c-3-187-2-380-2-570h180v1261c0 76 1 155 6 223H877c-8-49-9-116-10-174h-5C801-44 708 26 530 26c-135 0-234-46-297-139s-95-232-95-419c0-377 131-566 392-566 176 0 271 63 335 184zm-286-51c-222 0-255 197-255 427 0 229 31 425 253 425 237 0 286-195 286-441 0-238-52-411-284-411" id="aU"/><g id="p"><use transform="matrix(0.006944444444444445,0,0,0.006944444444444445,0,0)" xlink:href="#aP"/><use transform="matrix(0.006944444444444445,0,0,0.006944444444444445,8.534722222222223,0)" xlink:href="#aQ"/><use transform="matrix(0.006944444444444445,0,0,0.006944444444444445,17.069444444444446,0)" xlink:href="#aR"/><use transform="matrix(0.006944444444444445,0,0,0.006944444444444445,25.60416666666667,0)" xlink:href="#aS"/><use transform="matrix(0.006944444444444445,0,0,0.006944444444444445,34.13888888888889,0)" xlink:href="#aT"/><use transform="matrix(0.006944444444444445,0,0,0.006944444444444445,42.673611111111114,0)" xlink:href="#aU"/></g><path d="M706-1102c241 0 344 136 343 381V0H868v-695c1-168-57-273-220-268-190 6-283 138-283 336V0H185c-3-360 6-732-6-1082h170c4 54 7 126 8 185h3c63-121 164-204 346-205" id="aV"/><path d="M682 16c-209 0-323-80-324-285v-671H190v-142h170l58-282h120v282h432v142H538v652c2 114 60 155 182 155 106 0 209-16 297-34v137C921-4 806 16 682 16" id="aW"/><path d="M1000-272c3 95 12 159 101 161 21 0 41-3 59-7V-6c-44 10-86 16-139 16-141 2-191-84-197-217h-6C748-76 648 20 446 20c-207 0-318-120-318-322 0-266 194-348 454-354l236-4c12-191-40-305-222-305-140 0-220 47-232 172l-188-17c33-204 181-292 423-292 255 0 401 118 401 364v466zm-683-27c0 109 63 184 175 182 166-3 259-96 306-217 24-65 20-120 20-200-232 7-501-28-501 235" id="aX"/><path d="M745-142h380V0H143v-142h422v-798H246v-142h499v940zM545-1292v-192h200v192H545" id="aY"/><path d="M617-1102c355 0 481 238 477 599H322c5 222 84 388 301 388 144 0 244-59 284-166l158 45C1002-72 854 20 623 20c-342 0-490-220-490-568 0-346 151-554 484-554zm291 461c-18-192-90-328-289-328-194 0-287 128-295 328h584" id="aZ"/><path d="M839-1102c70 0 148 7 206 17v167c-112-18-268-36-363 15-129 69-208 203-208 395V0H294c-10-367 32-789-52-1082h171c21 75 41 161 48 250h5c67-152 152-270 373-270" id="ba"/><g id="q"><use transform="matrix(0.006944444444444445,0,0,0.006944444444444445,0,0)" xlink:href="#aQ"/><use transform="matrix(0.006944444444444445,0,0,0.006944444444444445,8.534722222222223,0)" xlink:href="#aS"/><use transform="matrix(0.006944444444444445,0,0,0.006944444444444445,17.069444444444446,0)" xlink:href="#aV"/><use transform="matrix(0.006944444444444445,0,0,0.006944444444444445,25.60416666666667,0)" xlink:href="#aW"/><use transform="matrix(0.006944444444444445,0,0,0.006944444444444445,34.13888888888889,0)" xlink:href="#aX"/><use transform="matrix(0.006944444444444445,0,0,0.006944444444444445,42.673611111111114,0)" xlink:href="#aY"/><use transform="matrix(0.006944444444444445,0,0,0.006944444444444445,51.208333333333336,0)" xlink:href="#aV"/><use transform="matrix(0.006944444444444445,0,0,0.006944444444444445,59.74305555555556,0)" xlink:href="#aZ"/><use transform="matrix(0.006944444444444445,0,0,0.006944444444444445,68.27777777777779,0)" xlink:href="#ba"/></g><path d="M334-464v-160h560v160H334" id="bb"/><path d="M698-1104c312 3 392 244 392 558 0 315-82 566-392 566-169 0-277-65-331-184h-5c8 188 2 394 4 589H185V-858c0-76-1-156-6-224h175c6 52 9 120 10 178h4c58-122 150-202 330-200zm-49 991c225 0 255-203 255-433 0-225-32-419-253-419-236 0-285 192-285 441 0 237 53 411 283 411" id="bc"/><path d="M873-819c-18-114-119-146-250-146-163 0-245 50-245 151 0 151 170 148 294 185 182 54 388 94 388 320 0 240-189 325-439 329-245 4-410-69-454-268l159-31c24 133 136 168 295 165 144-2 270-31 270-171 0-164-195-160-331-202-167-52-350-87-350-299 0-218 173-315 413-313 220 2 373 77 412 260" id="bd"/><g id="r"><use transform="matrix(0.006944444444444445,0,0,0.006944444444444445,0,0)" xlink:href="#aV"/><use transform="matrix(0.006944444444444445,0,0,0.006944444444444445,8.534722222222223,0)" xlink:href="#aS"/><use transform="matrix(0.006944444444444445,0,0,0.006944444444444445,17.069444444444446,0)" xlink:href="#aU"/><use transform="matrix(0.006944444444444445,0,0,0.006944444444444445,25.60416666666667,0)" xlink:href="#aZ"/><use transform="matrix(0.006944444444444445,0,0,0.006944444444444445,34.13888888888889,0)" xlink:href="#bb"/><use transform="matrix(0.006944444444444445,0,0,0.006944444444444445,42.673611111111114,0)" xlink:href="#bc"/><use transform="matrix(0.006944444444444445,0,0,0.006944444444444445,51.208333333333336,0)" xlink:href="#aS"/><use transform="matrix(0.006944444444444445,0,0,0.006944444444444445,59.74305555555556,0)" xlink:href="#aS"/><use transform="matrix(0.006944444444444445,0,0,0.006944444444444445,68.27777777777779,0)" xlink:href="#aR"/><use transform="matrix(0.006944444444444445,0,0,0.006944444444444445,76.81250000000001,0)" xlink:href="#bd"/></g><g id="s"><use transform="matrix(0.006944444444444445,0,0,0.006944444444444445,0,0)" xlink:href="#aT"/><use transform="matrix(0.006944444444444445,0,0,0.006944444444444445,8.534722222222223,0)" xlink:href="#bc"/><use transform="matrix(0.006944444444444445,0,0,0.006944444444444445,17.069444444444446,0)" xlink:href="#aU"/><use transform="matrix(0.006944444444444445,0,0,0.006944444444444445,25.60416666666667,0)" xlink:href="#aX"/><use transform="matrix(0.006944444444444445,0,0,0.006944444444444445,34.13888888888889,0)" xlink:href="#aW"/><use transform="matrix(0.006944444444444445,0,0,0.006944444444444445,42.673611111111114,0)" xlink:href="#aZ"/></g><path d="M731 0L431-1130c-8 85-19 175-34 254L227 0H57l262-1349h222L848-211c8-92 19-186 35-274l168-864h172L961 0H731" id="be"/><path d="M776-1370c274 1 414 159 404 442-14 419-153 770-452 904-69 31-144 44-224 44-276 1-411-170-402-450 14-416 146-766 446-897 69-30 145-43 228-43zM330-681c-48 232-51 546 205 546 109 0 196-47 264-140 94-129 174-388 179-638 3-184-62-301-232-301-104 0-191 44-260 132S367-861 330-681" id="bf"/><path d="M630-1349c335 0 545 126 545 459 0 418-179 721-489 846C517 24 281-7 57 0l262-1349h311zm346 567c33-285-98-417-375-411H480L278-156h162c141 0 254-45 341-133 100-101 170-285 195-493" id="bg"/><path d="M57 0l262-1349h919l-30 156H480l-82 422h668l-30 154H368l-90 461h769L1017 0H57" id="bh"/><path d="M779-1349c276-3 478 117 419 404-54 263-252 422-569 431H348L248 0H57l262-1349h460zM631-665c230-6 380-118 380-337 0-148-118-194-285-194H480L377-665h254" id="bi"/><path d="M132 0l262-1349h191L353-156h672L995 0H132" id="bj"/><path d="M-153 220l19-96h1238l-19 96H-153" id="bk"/><path d="M929 0l-64-382H302L91 0h-196l772-1349h217L1123 0H929zm-84-531c-33-225-70-447-100-674-114 230-242 451-363 674h463" id="bl"/><path d="M832 0c78-390 148-786 233-1169-124 253-264 488-400 729H528c-43-241-94-472-121-729C339-774 258-390 184 0H24l262-1349h237c39 239 98 457 113 720 117-256 262-480 395-720h225L994 0H832" id="bm"/><g id="t"><use transform="matrix(0.006944444444444445,0,0,0.006944444444444445,0,0)" xlink:href="#be"/><use transform="matrix(0.006944444444444445,0,0,0.006944444444444445,8.534722222222223,0)" xlink:href="#bf"/><use transform="matrix(0.006944444444444445,0,0,0.006944444444444445,17.069444444444446,0)" xlink:href="#bg"/><use transform="matrix(0.006944444444444445,0,0,0.006944444444444445,25.60416666666667,0)" xlink:href="#bh"/><use transform="matrix(0.006944444444444445,0,0,0.006944444444444445,34.13888888888889,0)" xlink:href="#bi"/><use transform="matrix(0.006944444444444445,0,0,0.006944444444444445,42.673611111111114,0)" xlink:href="#bf"/><use transform="matrix(0.006944444444444445,0,0,0.006944444444444445,51.208333333333336,0)" xlink:href="#bf"/><use transform="matrix(0.006944444444444445,0,0,0.006944444444444445,59.74305555555556,0)" xlink:href="#bj"/><use transform="matrix(0.006944444444444445,0,0,0.006944444444444445,68.27777777777779,0)" xlink:href="#bk"/><use transform="matrix(0.006944444444444445,0,0,0.006944444444444445,76.81250000000001,0)" xlink:href="#be"/><use transform="matrix(0.006944444444444445,0,0,0.006944444444444445,85.34722222222224,0)" xlink:href="#bl"/><use transform="matrix(0.006944444444444445,0,0,0.006944444444444445,93.88194444444447,0)" xlink:href="#bm"/><use transform="matrix(0.006944444444444445,0,0,0.006944444444444445,102.4166666666667,0)" xlink:href="#bh"/></g><path d="M932 20L115-1484h178L1114 20H932" id="bn"/><use transform="matrix(0.006944444444444445,0,0,0.006944444444444445,0,0)" xlink:href="#bn" id="u"/><path d="M116-856v-148h995v148H116zm0 512v-148h995v148H116" id="bo"/><path d="M1031-970c-23-138-92-244-250-244-306 0-381 266-440 533-17 75-25 147-25 229 1 197 73 317 266 317 202 0 293-151 377-282l146 65C986-167 844 20 550 20c-297 0-434-170-434-467 0-413 147-747 446-877 112-49 299-63 420-18 132 49 200 159 229 307" id="bp"/><path d="M305-328c2 145 68 191 220 193 255 4 322-161 364-376l163-838h190l-167 859C1015-179 865 20 496 20c-240 0-388-82-386-321 0-51 6-108 19-171l170-877h191c-59 315-126 624-180 944-5 28-5 54-5 77" id="bq"/><path d="M747-1226c-195 1-328 74-328 254 0 150 168 158 292 193 206 58 444 122 384 409-56 265-271 388-594 390C217 22 49-81 40-338l192-37c3 179 117 247 303 246 215-2 375-80 375-283 0-168-187-179-325-221-168-51-357-87-357-299 0-308 229-433 548-438 258-4 409 81 417 324l-194 33c-2-154-93-214-252-213" id="br"/><path d="M836-1193L604 0H414l232-1193H203l30-156h1076l-30 156H836" id="bs"/><path d="M801-1349c273-6 458 108 405 373-42 211-195 340-418 379L1072 0H852L598-575H360L248 0H57l262-1349h482zM669-726c214-4 349-100 349-300 0-113-89-170-266-170H480l-91 470h280" id="bt"/><g id="w"><use transform="matrix(0.006944444444444445,0,0,0.006944444444444445,0,0)" xlink:href="#bb"/><use transform="matrix(0.006944444444444445,0,0,0.006944444444444445,8.534722222222223,0)" xlink:href="#bb"/><use transform="matrix(0.006944444444444445,0,0,0.006944444444444445,17.069444444444446,0)" xlink:href="#aQ"/><use transform="matrix(0.006944444444444445,0,0,0.006944444444444445,25.60416666666667,0)" xlink:href="#aR"/><use transform="matrix(0.006944444444444445,0,0,0.006944444444444445,34.13888888888889,0)" xlink:href="#aT"/><use transform="matrix(0.006944444444444445,0,0,0.006944444444444445,42.673611111111114,0)" xlink:href="#bd"/><use transform="matrix(0.006944444444444445,0,0,0.006944444444444445,51.208333333333336,0)" xlink:href="#aW"/><use transform="matrix(0.006944444444444445,0,0,0.006944444444444445,59.74305555555556,0)" xlink:href="#aZ"/><use transform="matrix(0.006944444444444445,0,0,0.006944444444444445,68.27777777777779,0)" xlink:href="#ba"/><use transform="matrix(0.006944444444444445,0,0,0.006944444444444445,76.81250000000001,0)" xlink:href="#bo"/><use transform="matrix(0.006944444444444445,0,0,0.006944444444444445,85.34722222222224,0)" xlink:href="#bp"/><use transform="matrix(0.006944444444444445,0,0,0.006944444444444445,93.88194444444447,0)" xlink:href="#bj"/><use transform="matrix(0.006944444444444445,0,0,0.006944444444444445,102.4166666666667,0)" xlink:href="#bq"/><use transform="matrix(0.006944444444444445,0,0,0.006944444444444445,110.95138888888893,0)" xlink:href="#br"/><use transform="matrix(0.006944444444444445,0,0,0.006944444444444445,119.48611111111114,0)" xlink:href="#bs"/><use transform="matrix(0.006944444444444445,0,0,0.006944444444444445,128.02083333333337,0)" xlink:href="#bh"/><use transform="matrix(0.006944444444444445,0,0,0.006944444444444445,136.5555555555556,0)" xlink:href="#bt"/><use transform="matrix(0.006944444444444445,0,0,0.006944444444444445,145.09027777777783,0)" xlink:href="#bk"/><use transform="matrix(0.006944444444444445,0,0,0.006944444444444445,153.62500000000006,0)" xlink:href="#be"/><use transform="matrix(0.006944444444444445,0,0,0.006944444444444445,162.15972222222229,0)" xlink:href="#bl"/><use transform="matrix(0.006944444444444445,0,0,0.006944444444444445,170.6944444444445,0)" xlink:href="#bm"/><use transform="matrix(0.006944444444444445,0,0,0.006944444444444445,179.22916666666674,0)" xlink:href="#bh"/></g><path d="M1018 0H814c-67-224-138-444-200-673C552-442 476-224 407 0H204L21-1082h178c43 310 105 601 126 933 54-225 128-425 193-638h193c63 212 134 415 185 638 22-336 90-622 136-933h176" id="bu"/><path d="M914 0L548-499l-132 98V0H236v-1484h180v927l475-525h211L663-617 1125 0H914" id="bv"/><path d="M904-1102c199 0 220 177 220 381V0H956v-686c-3-114 0-215-60-264-70-33-125-4-158 71-26 56-39 140-39 252V0H531v-686c-3-114-1-215-61-264-78-41-136 24-157 84-24 69-39 159-39 259V0H105c-3-360 6-732-6-1082h149c6 50 3 123 8 175 36-100 83-195 216-195 135 0 166 79 196 196 42-105 93-196 236-196" id="bw"/><path d="M655-135c108 0 195-33 260-74v-336H622v-160h479v572C981-54 839 20 639 20c-388 0-526-306-526-701 0-406 129-689 529-689 261 0 392 137 461 331l-171 56c-47-131-122-231-288-231-281 0-330 245-330 533 0 179 28 314 84 407s142 139 257 139" id="bx"/><path d="M1003 0L516-638 353-469V0H162v-1349h191v673l572-673h225L646-777 1227 0h-224" id="by"/><path d="M162 0v-1349h919v156H353v422h668v154H353v461h769V0H162" id="bz"/><path d="M-5 220v-96h1238v96H-5" id="bA"/><path d="M285-1169c8 382 2 780 4 1169H129v-1349h237c86 239 188 461 253 720 69-258 169-481 255-720h225V0H937c2-390-5-788 6-1169-75 255-170 488-259 729H547c-90-240-185-475-262-729" id="bB"/><path d="M709-1193V0H519v-1193H76v-156h1076v156H709" id="bC"/><path d="M1034 0L896-382H333L196 0H0l510-1349h217L1228 0h-194zM847-531c-77-225-157-447-231-674-69 231-154 451-232 674h463" id="bD"/><path d="M473-1349c438-1 655 221 652 661C1122-268 945-8 532 0H162v-1349h311zm42 1193c308-4 416-205 418-532 2-330-131-509-459-505H353v1037h162" id="bE"/><g id="x"><use transform="matrix(0.006944444444444445,0,0,0.006944444444444445,0,0)" xlink:href="#bb"/><use transform="matrix(0.006944444444444445,0,0,0.006944444444444445,8.534722222222223,0)" xlink:href="#bb"/><use transform="matrix(0.006944444444444445,0,0,0.006944444444444445,17.069444444444446,0)" xlink:href="#bu"/><use transform="matrix(0.006944444444444445,0,0,0.006944444444444445,25.60416666666667,0)" xlink:href="#aS"/><use transform="matrix(0.006944444444444445,0,0,0.006944444444444445,34.13888888888889,0)" xlink:href="#ba"/><use transform="matrix(0.006944444444444445,0,0,0.006944444444444445,42.673611111111114,0)" xlink:href="#bv"/><use transform="matrix(0.006944444444444445,0,0,0.006944444444444445,51.208333333333336,0)" xlink:href="#aR"/><use transform="matrix(0.006944444444444445,0,0,0.006944444444444445,59.74305555555556,0)" xlink:href="#aS"/><use transform="matrix(0.006944444444444445,0,0,0.006944444444444445,68.27777777777779,0)" xlink:href="#aX"/><use transform="matrix(0.006944444444444445,0,0,0.006944444444444445,76.81250000000001,0)" xlink:href="#aU"/><use transform="matrix(0.006944444444444445,0,0,0.006944444444444445,85.34722222222224,0)" xlink:href="#bb"/><use transform="matrix(0.006944444444444445,0,0,0.006944444444444445,93.88194444444447,0)" xlink:href="#bw"/><use transform="matrix(0.006944444444444445,0,0,0.006944444444444445,102.4166666666667,0)" xlink:href="#aZ"/><use transform="matrix(0.006944444444444445,0,0,0.006944444444444445,110.95138888888893,0)" xlink:href="#aW"/><use transform="matrix(0.006944444444444445,0,0,0.006944444444444445,119.48611111111114,0)" xlink:href="#aX"/><use transform="matrix(0.006944444444444445,0,0,0.006944444444444445,128.02083333333337,0)" xlink:href="#aU"/><use transform="matrix(0.006944444444444445,0,0,0.006944444444444445,136.5555555555556,0)" xlink:href="#aX"/><use transform="matrix(0.006944444444444445,0,0,0.006944444444444445,145.09027777777783,0)" xlink:href="#aW"/><use transform="matrix(0.006944444444444445,0,0,0.006944444444444445,153.62500000000006,0)" xlink:href="#aX"/><use transform="matrix(0.006944444444444445,0,0,0.006944444444444445,162.15972222222229,0)" xlink:href="#bo"/><use transform="matrix(0.006944444444444445,0,0,0.006944444444444445,170.6944444444445,0)" xlink:href="#bx"/><use transform="matrix(0.006944444444444445,0,0,0.006944444444444445,179.22916666666674,0)" xlink:href="#by"/><use transform="matrix(0.006944444444444445,0,0,0.006944444444444445,187.76388888888897,0)" xlink:href="#bz"/><use transform="matrix(0.006944444444444445,0,0,0.006944444444444445,196.2986111111112,0)" xlink:href="#bA"/><use transform="matrix(0.006944444444444445,0,0,0.006944444444444445,204.83333333333343,0)" xlink:href="#bB"/><use transform="matrix(0.006944444444444445,0,0,0.006944444444444445,213.36805555555566,0)" xlink:href="#bz"/><use transform="matrix(0.006944444444444445,0,0,0.006944444444444445,221.90277777777789,0)" xlink:href="#bC"/><use transform="matrix(0.006944444444444445,0,0,0.006944444444444445,230.4375000000001,0)" xlink:href="#bD"/><use transform="matrix(0.006944444444444445,0,0,0.006944444444444445,238.97222222222234,0)" xlink:href="#bE"/><use transform="matrix(0.006944444444444445,0,0,0.006944444444444445,247.50694444444457,0)" xlink:href="#bD"/><use transform="matrix(0.006944444444444445,0,0,0.006944444444444445,256.0416666666668,0)" xlink:href="#bC"/><use transform="matrix(0.006944444444444445,0,0,0.006944444444444445,264.576388888889,0)" xlink:href="#bD"/></g><path fill="#3a414a" d="M205 0l-28-72H64L36 0H1l101-248h38L239 0h-34zm-38-99l-47-123c-12 45-31 82-46 123h93" id="bF"/><path fill="#3a414a" d="M30-248c87 1 191-15 191 75 0 78-77 80-158 76V0H30v-248zm33 125c57 0 124 11 124-50 0-59-68-47-124-48v98" id="bG"/><g id="y"><use transform="matrix(0.06172839506172839,0,0,0.06172839506172839,0,0)" xlink:href="#bF"/><use transform="matrix(0.06172839506172839,0,0,0.06172839506172839,14.814814814814813,0)" xlink:href="#bG"/><use transform="matrix(0.06172839506172839,0,0,0.06172839506172839,29.629629629629626,0)" xlink:href="#aI"/></g><g id="z"><use transform="matrix(0.06172839506172839,0,0,0.06172839506172839,0,0)" xlink:href="#aA"/><use transform="matrix(0.06172839506172839,0,0,0.06172839506172839,14.814814814814813,0)" xlink:href="#an"/><use transform="matrix(0.06172839506172839,0,0,0.06172839506172839,27.160493827160494,0)" xlink:href="#aw"/><use transform="matrix(0.06172839506172839,0,0,0.06172839506172839,39.50617283950617,0)" xlink:href="#as"/><use transform="matrix(0.06172839506172839,0,0,0.06172839506172839,51.85185185185185,0)" xlink:href="#ap"/><use transform="matrix(0.06172839506172839,0,0,0.06172839506172839,64.19753086419753,0)" xlink:href="#ax"/><use transform="matrix(0.06172839506172839,0,0,0.06172839506172839,69.07407407407408,0)" xlink:href="#an"/><use transform="matrix(0.06172839506172839,0,0,0.06172839506172839,81.41975308641976,0)" xlink:href="#at"/></g><g id="A"><use transform="matrix(0.06172839506172839,0,0,0.06172839506172839,0,0)" xlink:href="#ax"/><use transform="matrix(0.06172839506172839,0,0,0.06172839506172839,4.876543209876543,0)" xlink:href="#an"/></g><g id="B"><use transform="matrix(0.06172839506172839,0,0,0.06172839506172839,0,0)" xlink:href="#bG"/><use transform="matrix(0.06172839506172839,0,0,0.06172839506172839,14.814814814814813,0)" xlink:href="#aG"/><use transform="matrix(0.06172839506172839,0,0,0.06172839506172839,19.691358024691354,0)" xlink:href="#aH"/><use transform="matrix(0.06172839506172839,0,0,0.06172839506172839,32.03703703703703,0)" xlink:href="#at"/><use transform="matrix(0.06172839506172839,0,0,0.06172839506172839,38.20987654320987,0)" xlink:href="#aN"/><use transform="matrix(0.06172839506172839,0,0,0.06172839506172839,44.382716049382715,0)" xlink:href="#ap"/><use transform="matrix(0.06172839506172839,0,0,0.06172839506172839,56.72839506172839,0)" xlink:href="#aE"/><use transform="matrix(0.06172839506172839,0,0,0.06172839506172839,64.07407407407408,0)" xlink:href="#ar"/></g><path fill="#3a414a" d="M96-169c-40 0-48 33-48 73s9 75 48 75c24 0 41-14 43-38l32 2c-6 37-31 61-74 61-59 0-76-41-82-99-10-93 101-131 147-64 4 7 5 14 7 22l-32 3c-4-21-16-35-41-35" id="bH"/><g id="C"><use transform="matrix(0.06172839506172839,0,0,0.06172839506172839,0,0)" xlink:href="#av"/><use transform="matrix(0.06172839506172839,0,0,0.06172839506172839,15.987654320987653,0)" xlink:href="#aH"/><use transform="matrix(0.06172839506172839,0,0,0.06172839506172839,28.333333333333332,0)" xlink:href="#ar"/><use transform="matrix(0.06172839506172839,0,0,0.06172839506172839,46.79012345679012,0)" xlink:href="#au"/><use transform="matrix(0.06172839506172839,0,0,0.06172839506172839,59.1358024691358,0)" xlink:href="#ao"/><use transform="matrix(0.06172839506172839,0,0,0.06172839506172839,70.24691358024691,0)" xlink:href="#as"/><use transform="matrix(0.06172839506172839,0,0,0.06172839506172839,82.5925925925926,0)" xlink:href="#aH"/><use transform="matrix(0.06172839506172839,0,0,0.06172839506172839,94.93827160493828,0)" xlink:href="#bH"/><use transform="matrix(0.06172839506172839,0,0,0.06172839506172839,106.0493827160494,0)" xlink:href="#au"/></g><path fill="#212121" d="M521 20C240 20 96-239 96-550c0-303 147-552 427-552 132 0 235 47 309 140l9-120h169V-26c4 277-183 454-459 452-165-1-334-81-400-187l96-111c79 98 176 147 291 147 180 1 288-109 286-290v-93C750-23 649 20 521 20zm48-965c-209 0-287 178-287 416 0 217 86 392 285 392 117 0 202-53 257-159v-494c-57-103-142-155-255-155" id="bI"/><path fill="#212121" d="M277-555c0 244 77 420 297 424 127 2 249-93 255-210h175C980-127 805 20 574 20 258 20 81-222 92-562c11-319 164-533 481-540 237-5 426 165 431 392H829c-7-133-115-242-256-240-209 4-296 166-296 395" id="bJ"/><path fill="#212121" d="M632-1102c291 0 422 251 422 573 0 297-141 548-419 549-131 0-235-42-310-125v521H140v-1498h169l9 120c75-93 180-140 314-140zm-53 971c207 0 290-180 290-419 0-218-92-395-292-395-112 0-196 50-252 149v517c55 99 140 148 254 148" id="bK"/><path fill="#212121" d="M1098-255l208-827h185L1176 0h-150L763-820 507 0H357L43-1082h184l213 810 252-810h149" id="bL"/><path fill="#212121" d="M584 20C278 26 81-227 91-551c10-320 175-545 491-551 308-5 503 247 494 573-9 322-175 543-492 549zm-2-970c-208 0-305 185-305 421 0 216 106 398 307 398 211 0 307-186 307-420 0-214-109-399-309-399" id="bM"/><path fill="#212121" d="M663-916c-163-27-288 18-338 148V0H140v-1082h180l3 125c61-97 147-145 258-145 36 0 63 5 82 14v172" id="bN"/><path fill="#212121" d="M442-501L326-380V0H141v-1536h185v929c135-169 291-317 436-475h225L566-630 1036 0H819" id="bO"/><path fill="#212121" d="M341 0H156v-1536h185V0" id="bP"/><path fill="#212121" d="M561-1102c238-4 403 126 403 351v498c0 99 13 178 38 237V0H808c-11-21-19-59-26-114C696-25 593 20 474 20c-199 0-368-130-365-320 4-251 214-359 490-356h180v-85c-1-135-86-212-229-212-115 0-232 67-233 171H131c20-205 206-316 430-320zM294-326c0 117 90 185 207 185 122 0 239-75 278-162v-222H634c-227 0-340 66-340 199" id="bQ"/><path fill="#212121" d="M520 20C244 20 95-247 95-550c0-298 151-550 427-552 127 0 227 43 301 130v-564h185V0H838l-9-116C755-25 652 20 520 20zm48-965c-210 0-288 177-288 416 0 218 87 392 286 392 117 0 203-53 257-158v-497c-55-102-140-153-255-153" id="bR"/><path fill="#212121" d="M341 0H156v-1082h185V0zm-91-1264c-68 0-108-42-109-105 0-62 41-107 109-107s110 44 110 107-42 105-110 105" id="bS"/><path fill="#212121" d="M599-131c141 0 220-65 285-146l113 88C906-50 770 20 589 20 281 21 93-214 93-545c0-223 93-397 233-485 74-48 154-72 240-72 300 2 449 218 445 537v77H278c0 197 129 357 321 357zm227-509c-3-180-88-310-260-310-170 0-264 140-282 310h542" id="bT"/><path fill="#212121" d="M589-945c-131 0-219 81-264 174V0H140v-1082h175l6 136c83-104 191-156 324-156 229 0 346 129 346 387V0H806v-716c-2-153-65-229-217-229" id="bU"/><path fill="#212121" d="M456 20C285 20 205-92 206-268v-671H9v-143h197v-262h185v262h202v143H391v671c-9 125 92 149 207 118V0c-49 13-96 20-142 20" id="bV"/><path fill="#212121" d="M494-271l252-811h198L509 167C425 381 299 474 84 421V271c167 16 242-37 283-173l41-110L22-1082h202" id="bW"/><path fill="#212121" d="M258 11c-71 0-114-43-114-108 0-67 42-112 114-112s116 45 116 112c-1 65-45 108-116 108" id="bX"/><path fill="#212121" d="M1240-945c-141 0-250 95-250 227V0H804v-709c0-157-77-236-231-236-121 0-204 52-249 155V0H139v-1082h175l5 120c79-93 186-140 321-140 151 0 254 58 309 174 69-98 181-174 345-174 237 0 362 126 362 377V0h-185v-714c-2-159-67-231-231-231" id="bY"/><path fill="#212121" d="M525-543H37v-151h488v151" id="bZ"/><path fill="#212121" d="M704-1390c-164-38-297 28-288 194v114h231v143H416V0H231v-939H60v-143h171v-111c-12-274 208-416 483-347" id="ca"/><path fill="#212121" d="M177 125H18l608-1581h158" id="cb"/><path fill="#212121" d="M538-131c121 0 232-49 232-156 0-50-20-88-56-117-73-60-334-92-420-143-92-55-162-110-162-238 0-190 192-317 400-317 223 0 414 129 413 338H759c0-108-110-186-227-186-119 0-215 53-215 159 0 45 18 78 53 101 76 52 331 90 416 139 98 57 169 115 169 251C955-92 760 20 538 20c-176 0-314-68-386-174-38-55-57-115-57-179h185c6 129 116 202 258 202" id="cc"/><path fill="#212121" d="M491 20c-241-1-355-148-355-398v-704h185v699c0 164 67 246 200 246 141 0 235-53 282-158v-787h185V0H812l-4-107C736-22 630 20 491 20" id="cd"/><path fill="#212121" d="M920 151H4V0h916v151" id="ce"/><path fill="#212121" d="M497-251l268-831h189L566 0H425L33-1082h189" id="cf"/><g id="D"><use transform="matrix(0.0078125,0,0,0.0078125,0,0)" xlink:href="#bI"/><use transform="matrix(0.0078125,0,0,0.0078125,8.9765625,0)" xlink:href="#bJ"/><use transform="matrix(0.0078125,0,0,0.0078125,17.3515625,0)" xlink:href="#bK"/><use transform="matrix(0.0078125,0,0,0.0078125,26.328125,0)" xlink:href="#bL"/><use transform="matrix(0.0078125,0,0,0.0078125,38.3515625,0)" xlink:href="#bM"/><use transform="matrix(0.0078125,0,0,0.0078125,47.4765625,0)" xlink:href="#bN"/><use transform="matrix(0.0078125,0,0,0.0078125,52.890625,0)" xlink:href="#bO"/><use transform="matrix(0.0078125,0,0,0.0078125,61,0)" xlink:href="#bP"/><use transform="matrix(0.0078125,0,0,0.0078125,64.8828125,0)" xlink:href="#bM"/><use transform="matrix(0.0078125,0,0,0.0078125,74.0078125,0)" xlink:href="#bQ"/><use transform="matrix(0.0078125,0,0,0.0078125,82.7109375,0)" xlink:href="#bR"/><use transform="matrix(0.0078125,0,0,0.0078125,91.734375,0)" xlink:href="#bS"/><use transform="matrix(0.0078125,0,0,0.0078125,95.6171875,0)" xlink:href="#bR"/><use transform="matrix(0.0078125,0,0,0.0078125,104.640625,0)" xlink:href="#bT"/><use transform="matrix(0.0078125,0,0,0.0078125,113.1171875,0)" xlink:href="#bU"/><use transform="matrix(0.0078125,0,0,0.0078125,121.9453125,0)" xlink:href="#bV"/><use transform="matrix(0.0078125,0,0,0.0078125,127.171875,0)" xlink:href="#bS"/><use transform="matrix(0.0078125,0,0,0.0078125,131.0546875,0)" xlink:href="#bV"/><use transform="matrix(0.0078125,0,0,0.0078125,136.28125,0)" xlink:href="#bW"/><use transform="matrix(0.0078125,0,0,0.0078125,143.015625,0)" xlink:href="#bX"/><use transform="matrix(0.0078125,0,0,0.0078125,147.2265625,0)" xlink:href="#bR"/><use transform="matrix(0.0078125,0,0,0.0078125,156.25,0)" xlink:href="#bM"/><use transform="matrix(0.0078125,0,0,0.0078125,165.375,0)" xlink:href="#bY"/><use transform="matrix(0.0078125,0,0,0.0078125,179.3984375,0)" xlink:href="#bS"/><use transform="matrix(0.0078125,0,0,0.0078125,183.28125,0)" xlink:href="#bU"/><use transform="matrix(0.0078125,0,0,0.0078125,192.109375,0)" xlink:href="#bM"/><use transform="matrix(0.0078125,0,0,0.0078125,201.234375,0)" xlink:href="#bZ"/><use transform="matrix(0.0078125,0,0,0.0078125,205.6484375,0)" xlink:href="#bK"/><use transform="matrix(0.0078125,0,0,0.0078125,214.625,0)" xlink:href="#bP"/><use transform="matrix(0.0078125,0,0,0.0078125,218.5078125,0)" xlink:href="#bQ"/><use transform="matrix(0.0078125,0,0,0.0078125,227.2109375,0)" xlink:href="#bV"/><use transform="matrix(0.0078125,0,0,0.0078125,232.4375,0)" xlink:href="#ca"/><use transform="matrix(0.0078125,0,0,0.0078125,237.9921875,0)" xlink:href="#bM"/><use transform="matrix(0.0078125,0,0,0.0078125,247.1171875,0)" xlink:href="#bN"/><use transform="matrix(0.0078125,0,0,0.0078125,252.53125,0)" xlink:href="#bY"/><use transform="matrix(0.0078125,0,0,0.0078125,266.5546875,0)" xlink:href="#cb"/><use transform="matrix(0.0078125,0,0,0.0078125,273.1484375,0)" xlink:href="#bQ"/><use transform="matrix(0.0078125,0,0,0.0078125,281.8515625,0)" xlink:href="#cc"/><use transform="matrix(0.0078125,0,0,0.0078125,290.1015625,0)" xlink:href="#cc"/><use transform="matrix(0.0078125,0,0,0.0078125,298.3515625,0)" xlink:href="#cd"/><use transform="matrix(0.0078125,0,0,0.0078125,307.171875,0)" xlink:href="#bY"/><use transform="matrix(0.0078125,0,0,0.0078125,321.1953125,0)" xlink:href="#bT"/><use transform="matrix(0.0078125,0,0,0.0078125,329.671875,0)" xlink:href="#ce"/><use transform="matrix(0.0078125,0,0,0.0078125,336.890625,0)" xlink:href="#cc"/><use transform="matrix(0.0078125,0,0,0.0078125,345.140625,0)" xlink:href="#bT"/><use transform="matrix(0.0078125,0,0,0.0078125,353.6171875,0)" xlink:href="#bN"/><use transform="matrix(0.0078125,0,0,0.0078125,359.171875,0)" xlink:href="#cf"/><use transform="matrix(0.0078125,0,0,0.0078125,366.921875,0)" xlink:href="#bS"/><use transform="matrix(0.0078125,0,0,0.0078125,370.8046875,0)" xlink:href="#bJ"/><use transform="matrix(0.0078125,0,0,0.0078125,379.1796875,0)" xlink:href="#bT"/><use transform="matrix(0.0078125,0,0,0.0078125,387.65625,0)" xlink:href="#ce"/><use transform="matrix(0.0078125,0,0,0.0078125,394.875,0)" xlink:href="#bQ"/><use transform="matrix(0.0078125,0,0,0.0078125,403.578125,0)" xlink:href="#bJ"/><use transform="matrix(0.0078125,0,0,0.0078125,411.953125,0)" xlink:href="#bJ"/><use transform="matrix(0.0078125,0,0,0.0078125,420.328125,0)" xlink:href="#bM"/><use transform="matrix(0.0078125,0,0,0.0078125,429.453125,0)" xlink:href="#cd"/><use transform="matrix(0.0078125,0,0,0.0078125,438.2734375,0)" xlink:href="#bU"/><use transform="matrix(0.0078125,0,0,0.0078125,447.1015625,0)" xlink:href="#bV"/></g><path d="M84 4C-5 8 30-112 23-190h32v120c0 31 7 50 39 49 72-2 45-101 50-169h31l1 190h-30c-1-10 1-25-2-33-11 22-28 36-60 37" id="cg"/><path d="M24 0v-261h32V0H24" id="ch"/><g id="E"><use transform="matrix(0.044444444444444446,0,0,0.044444444444444446,0,0)" xlink:href="#aj"/><use transform="matrix(0.044444444444444446,0,0,0.044444444444444446,8,0)" xlink:href="#cg"/><use transform="matrix(0.044444444444444446,0,0,0.044444444444444446,16.88888888888889,0)" xlink:href="#ae"/><use transform="matrix(0.044444444444444446,0,0,0.044444444444444446,22.177777777777777,0)" xlink:href="#ch"/></g><path d="M16-82v-28h88v28H16" id="ci"/><path d="M59-47c-2 24 18 29 38 22v24C64 9 27 4 27-40v-127H5v-23h24l9-43h21v43h35v23H59v120" id="cj"/><g id="F"><use transform="matrix(0.044444444444444446,0,0,0.044444444444444446,0,0)" xlink:href="#ci"/><use transform="matrix(0.044444444444444446,0,0,0.044444444444444446,5.288888888888889,0)" xlink:href="#ci"/><use transform="matrix(0.044444444444444446,0,0,0.044444444444444446,10.577777777777778,0)" xlink:href="#ch"/><use transform="matrix(0.044444444444444446,0,0,0.044444444444444446,14.088888888888889,0)" xlink:href="#Z"/><use transform="matrix(0.044444444444444446,0,0,0.044444444444444446,22.977777777777778,0)" xlink:href="#aj"/><use transform="matrix(0.044444444444444446,0,0,0.044444444444444446,30.977777777777778,0)" xlink:href="#ai"/><use transform="matrix(0.044444444444444446,0,0,0.044444444444444446,39.86666666666667,0)" xlink:href="#cj"/><use transform="matrix(0.044444444444444446,0,0,0.044444444444444446,44.31111111111111,0)" xlink:href="#ab"/><use transform="matrix(0.044444444444444446,0,0,0.044444444444444446,47.82222222222222,0)" xlink:href="#Z"/><use transform="matrix(0.044444444444444446,0,0,0.044444444444444446,56.711111111111116,0)" xlink:href="#ac"/></g><path d="M145-31C134-9 116 4 85 4 32 4 16-35 15-94c0-59 17-99 70-100 32-1 48 14 60 33 0-11-1-24 2-32h30l-1 268h-32zM93-21c41 0 51-33 51-76s-8-73-50-73c-40 0-46 35-46 75s5 74 45 74" id="ck"/><g id="G"><use transform="matrix(0.044444444444444446,0,0,0.044444444444444446,0,0)" xlink:href="#ci"/><use transform="matrix(0.044444444444444446,0,0,0.044444444444444446,5.288888888888889,0)" xlink:href="#ci"/><use transform="matrix(0.044444444444444446,0,0,0.044444444444444446,10.577777777777778,0)" xlink:href="#ae"/><use transform="matrix(0.044444444444444446,0,0,0.044444444444444446,15.866666666666667,0)" xlink:href="#ak"/><use transform="matrix(0.044444444444444446,0,0,0.044444444444444446,24.755555555555556,0)" xlink:href="#ck"/><use transform="matrix(0.044444444444444446,0,0,0.044444444444444446,33.644444444444446,0)" xlink:href="#cg"/><use transform="matrix(0.044444444444444446,0,0,0.044444444444444446,42.53333333333333,0)" xlink:href="#ak"/><use transform="matrix(0.044444444444444446,0,0,0.044444444444444446,51.42222222222222,0)" xlink:href="#ag"/><use transform="matrix(0.044444444444444446,0,0,0.044444444444444446,59.42222222222222,0)" xlink:href="#cj"/></g><path d="M30-248c87 1 191-15 191 75 0 78-77 80-158 76V0H30v-248zm33 125c57 0 124 11 124-50 0-59-68-47-124-48v98" id="cl"/><path d="M140-251c81 0 123 46 123 126C263-46 219 4 140 4 59 4 17-45 17-125s42-126 123-126zm0 227c63 0 89-41 89-101s-29-99-89-99c-61 0-89 39-89 99S79-25 140-24" id="cm"/><path d="M185-189c-5-48-123-54-124 2 14 75 158 14 163 119 3 78-121 87-175 55-17-10-28-26-33-46l33-7c5 56 141 63 141-1 0-78-155-14-162-118-5-82 145-84 179-34 5 7 8 16 11 25" id="cn"/><path d="M127-220V0H93v-220H8v-28h204v28h-85" id="co"/><g id="H"><use transform="matrix(0.044444444444444446,0,0,0.044444444444444446,0,0)" xlink:href="#cl"/><use transform="matrix(0.044444444444444446,0,0,0.044444444444444446,10.666666666666668,0)" xlink:href="#cm"/><use transform="matrix(0.044444444444444446,0,0,0.044444444444444446,23.11111111111111,0)" xlink:href="#cn"/><use transform="matrix(0.044444444444444446,0,0,0.044444444444444446,33.777777777777786,0)" xlink:href="#co"/></g><path fill="#2a00ff" d="M47-170H22l-4-78h33" id="cp"/><path fill="#2a00ff" d="M106-169C34-169 62-67 57 0H25v-261h32l-1 103c12-21 28-36 61-36 89 0 53 116 60 194h-32v-121c2-32-8-49-39-48" id="cq"/><path fill="#2a00ff" d="M59-47c-2 24 18 29 38 22v24C64 9 27 4 27-40v-127H5v-23h24l9-43h21v43h35v23H59v120" id="cr"/><path fill="#2a00ff" d="M115-194c55 1 70 41 70 98S169 2 115 4C84 4 66-9 55-30l1 105H24l-1-265h31l2 30c10-21 28-34 59-34zm-8 174c40 0 45-34 45-75s-6-73-45-74c-42 0-51 32-51 76 0 43 10 73 51 73" id="cs"/><path fill="#2a00ff" d="M33-154v-36h34v36H33zM33 0v-36h34V0H33" id="ct"/><path fill="#2a00ff" d="M0 4l72-265h28L28 4H0" id="cu"/><path fill="#2a00ff" d="M177-190C167-65 218 103 67 71c-23-6-38-20-44-43l32-5c15 47 100 32 89-28v-30C133-14 115 1 83 1 29 1 15-40 15-95c0-56 16-97 71-98 29-1 48 16 59 35 1-10 0-23 2-32h30zM94-22c36 0 50-32 50-73 0-42-14-75-50-75-39 0-46 34-46 75s6 73 46 73" id="cv"/><path fill="#2a00ff" d="M96-169c-40 0-48 33-48 73s9 75 48 75c24 0 41-14 43-38l32 2c-6 37-31 61-74 61-59 0-76-41-82-99-10-93 101-131 147-64 4 7 5 14 7 22l-32 3c-4-21-16-35-41-35" id="cw"/><path fill="#2a00ff" d="M206 0h-36l-40-164L89 0H53L-1-190h32L70-26l43-164h34l41 164 42-164h31" id="cx"/><path fill="#2a00ff" d="M100-194c62-1 85 37 85 99 1 63-27 99-86 99S16-35 15-95c0-66 28-99 85-99zM99-20c44 1 53-31 53-75 0-43-8-75-51-75s-53 32-53 75 10 74 51 75" id="cy"/><path fill="#2a00ff" d="M114-163C36-179 61-72 57 0H25l-1-190h30c1 12-1 29 2 39 6-27 23-49 58-41v29" id="cz"/><path fill="#2a00ff" d="M143 0L79-87 56-68V0H24v-261h32v163l83-92h37l-77 82L181 0h-38" id="cA"/><path fill="#2a00ff" d="M24 0v-261h32V0H24" id="cB"/><path fill="#2a00ff" d="M141-36C126-15 110 5 73 4 37 3 15-17 15-53c-1-64 63-63 125-63 3-35-9-54-41-54-24 1-41 7-42 31l-33-3c5-37 33-52 76-52 45 0 72 20 72 64v82c-1 20 7 32 28 27v20c-31 9-61-2-59-35zM48-53c0 20 12 33 32 33 41-3 63-29 60-74-43 2-92-5-92 41" id="cC"/><path fill="#2a00ff" d="M85-194c31 0 48 13 60 33l-1-100h32l1 261h-30c-2-10 0-23-3-31C134-8 116 4 85 4 32 4 16-35 15-94c0-66 23-100 70-100zm9 24c-40 0-46 34-46 75 0 40 6 74 45 74 42 0 51-32 51-76 0-42-9-74-50-73" id="cD"/><path fill="#2a00ff" d="M24-231v-30h32v30H24zM24 0v-190h32V0H24" id="cE"/><path fill="#2a00ff" d="M100-194c63 0 86 42 84 106H49c0 40 14 67 53 68 26 1 43-12 49-29l28 8c-11 28-37 45-77 45C44 4 14-33 15-96c1-61 26-98 85-98zm52 81c6-60-76-77-97-28-3 7-6 17-6 28h103" id="cF"/><path fill="#2a00ff" d="M117-194c89-4 53 116 60 194h-32v-121c0-31-8-49-39-48C34-167 62-67 57 0H25l-1-190h30c1 10-1 24 2 32 11-22 29-35 61-36" id="cG"/><path fill="#2a00ff" d="M179-190L93 31C79 59 56 82 12 73V49c39 6 53-20 64-50L1-190h34L92-34l54-156h33" id="cH"/><path fill="#2a00ff" d="M33 0v-38h34V0H33" id="cI"/><path fill="#2a00ff" d="M210-169c-67 3-38 105-44 169h-31v-121c0-29-5-50-35-48C34-165 62-65 56 0H25l-1-190h30c1 10-1 24 2 32 10-44 99-50 107 0 11-21 27-35 58-36 85-2 47 119 55 194h-31v-121c0-29-5-49-35-48" id="cJ"/><path fill="#2a00ff" d="M101-234c-31-9-42 10-38 44h38v23H63V0H32v-167H5v-23h27c-7-52 17-82 69-68v24" id="cK"/><path fill="#2a00ff" d="M-5 72V49h209v23H-5" id="cL"/><path fill="#2a00ff" d="M135-143c-3-34-86-38-87 0 15 53 115 12 119 90S17 21 10-45l28-5c4 36 97 45 98 0-10-56-113-15-118-90-4-57 82-63 122-42 12 7 21 19 24 35" id="cM"/><path fill="#2a00ff" d="M108 0H70L1-190h34L89-25l56-165h34" id="cN"/><path fill="#2a00ff" d="M84 4C-5 8 30-112 23-190h32v120c0 31 7 50 39 49 72-2 45-101 50-169h31l1 190h-30c-1-10 1-25-2-33-11 22-28 36-60 37" id="cO"/><g id="I"><use transform="matrix(0.044444444444444446,0,0,0.044444444444444446,0,0)" xlink:href="#cp"/><use transform="matrix(0.044444444444444446,0,0,0.044444444444444446,3.022222222222222,0)" xlink:href="#cq"/><use transform="matrix(0.044444444444444446,0,0,0.044444444444444446,11.911111111111111,0)" xlink:href="#cr"/><use transform="matrix(0.044444444444444446,0,0,0.044444444444444446,16.355555555555554,0)" xlink:href="#cr"/><use transform="matrix(0.044444444444444446,0,0,0.044444444444444446,20.799999999999997,0)" xlink:href="#cs"/><use transform="matrix(0.044444444444444446,0,0,0.044444444444444446,29.688888888888886,0)" xlink:href="#ct"/><use transform="matrix(0.044444444444444446,0,0,0.044444444444444446,34.13333333333333,0)" xlink:href="#cu"/><use transform="matrix(0.044444444444444446,0,0,0.044444444444444446,38.577777777777776,0)" xlink:href="#cu"/><use transform="matrix(0.044444444444444446,0,0,0.044444444444444446,43.02222222222222,0)" xlink:href="#cv"/><use transform="matrix(0.044444444444444446,0,0,0.044444444444444446,51.91111111111111,0)" xlink:href="#cw"/><use transform="matrix(0.044444444444444446,0,0,0.044444444444444446,59.91111111111111,0)" xlink:href="#cs"/><use transform="matrix(0.044444444444444446,0,0,0.044444444444444446,68.8,0)" xlink:href="#cx"/><use transform="matrix(0.044444444444444446,0,0,0.044444444444444446,80.3111111111111,0)" xlink:href="#cy"/><use transform="matrix(0.044444444444444446,0,0,0.044444444444444446,89.19999999999999,0)" xlink:href="#cz"/><use transform="matrix(0.044444444444444446,0,0,0.044444444444444446,94.48888888888887,0)" xlink:href="#cA"/><use transform="matrix(0.044444444444444446,0,0,0.044444444444444446,102.48888888888887,0)" xlink:href="#cB"/><use transform="matrix(0.044444444444444446,0,0,0.044444444444444446,105.99999999999999,0)" xlink:href="#cy"/><use transform="matrix(0.044444444444444446,0,0,0.044444444444444446,114.88888888888887,0)" xlink:href="#cC"/><use transform="matrix(0.044444444444444446,0,0,0.044444444444444446,123.77777777777776,0)" xlink:href="#cD"/><use transform="matrix(0.044444444444444446,0,0,0.044444444444444446,132.66666666666666,0)" xlink:href="#cE"/><use transform="matrix(0.044444444444444446,0,0,0.044444444444444446,136.17777777777778,0)" xlink:href="#cD"/><use transform="matrix(0.044444444444444446,0,0,0.044444444444444446,145.06666666666666,0)" xlink:href="#cF"/><use transform="matrix(0.044444444444444446,0,0,0.044444444444444446,153.95555555555555,0)" xlink:href="#cG"/><use transform="matrix(0.044444444444444446,0,0,0.044444444444444446,162.84444444444443,0)" xlink:href="#cr"/><use transform="matrix(0.044444444444444446,0,0,0.044444444444444446,167.2888888888889,0)" xlink:href="#cE"/><use transform="matrix(0.044444444444444446,0,0,0.044444444444444446,170.8,0)" xlink:href="#cr"/><use transform="matrix(0.044444444444444446,0,0,0.044444444444444446,175.24444444444447,0)" xlink:href="#cH"/><use transform="matrix(0.044444444444444446,0,0,0.044444444444444446,182.04444444444448,0)" xlink:href="#cI"/><use transform="matrix(0.044444444444444446,0,0,0.044444444444444446,186.48888888888894,0)" xlink:href="#cD"/><use transform="matrix(0.044444444444444446,0,0,0.044444444444444446,195.37777777777782,0)" xlink:href="#cy"/><use transform="matrix(0.044444444444444446,0,0,0.044444444444444446,204.2666666666667,0)" xlink:href="#cJ"/><use transform="matrix(0.044444444444444446,0,0,0.044444444444444446,217.5555555555556,0)" xlink:href="#cE"/><use transform="matrix(0.044444444444444446,0,0,0.044444444444444446,221.06666666666672,0)" xlink:href="#cG"/><use transform="matrix(0.044444444444444446,0,0,0.044444444444444446,229.9555555555556,0)" xlink:href="#cy"/><use transform="matrix(0.044444444444444446,0,0,0.044444444444444446,238.8444444444445,0)" xlink:href="#cI"/><use transform="matrix(0.044444444444444446,0,0,0.044444444444444446,243.28888888888895,0)" xlink:href="#cs"/><use transform="matrix(0.044444444444444446,0,0,0.044444444444444446,252.17777777777783,0)" xlink:href="#cB"/><use transform="matrix(0.044444444444444446,0,0,0.044444444444444446,255.68888888888893,0)" xlink:href="#cC"/><use transform="matrix(0.044444444444444446,0,0,0.044444444444444446,264.57777777777784,0)" xlink:href="#cr"/><use transform="matrix(0.044444444444444446,0,0,0.044444444444444446,269.0222222222223,0)" xlink:href="#cK"/><use transform="matrix(0.044444444444444446,0,0,0.044444444444444446,273.46666666666675,0)" xlink:href="#cy"/><use transform="matrix(0.044444444444444446,0,0,0.044444444444444446,282.35555555555567,0)" xlink:href="#cz"/><use transform="matrix(0.044444444444444446,0,0,0.044444444444444446,287.64444444444456,0)" xlink:href="#cJ"/><use transform="matrix(0.044444444444444446,0,0,0.044444444444444446,300.93333333333345,0)" xlink:href="#cu"/><use transform="matrix(0.044444444444444446,0,0,0.044444444444444446,305.3777777777779,0)" xlink:href="#cC"/><use transform="matrix(0.044444444444444446,0,0,0.044444444444444446,314.2666666666668,0)" xlink:href="#cs"/><use transform="matrix(0.044444444444444446,0,0,0.044444444444444446,323.15555555555574,0)" xlink:href="#cs"/><use transform="matrix(0.044444444444444446,0,0,0.044444444444444446,332.04444444444465,0)" xlink:href="#cB"/><use transform="matrix(0.044444444444444446,0,0,0.044444444444444446,335.55555555555577,0)" xlink:href="#cH"/><use transform="matrix(0.044444444444444446,0,0,0.044444444444444446,343.55555555555577,0)" xlink:href="#cL"/><use transform="matrix(0.044444444444444446,0,0,0.044444444444444446,352.4444444444447,0)" xlink:href="#cM"/><use transform="matrix(0.044444444444444446,0,0,0.044444444444444446,360.4444444444447,0)" xlink:href="#cF"/><use transform="matrix(0.044444444444444446,0,0,0.044444444444444446,369.3333333333336,0)" xlink:href="#cz"/><use transform="matrix(0.044444444444444446,0,0,0.044444444444444446,374.6222222222225,0)" xlink:href="#cN"/><use transform="matrix(0.044444444444444446,0,0,0.044444444444444446,382.6222222222225,0)" xlink:href="#cE"/><use transform="matrix(0.044444444444444446,0,0,0.044444444444444446,386.1333333333336,0)" xlink:href="#cw"/><use transform="matrix(0.044444444444444446,0,0,0.044444444444444446,394.1333333333336,0)" xlink:href="#cF"/><use transform="matrix(0.044444444444444446,0,0,0.044444444444444446,403.0222222222226,0)" xlink:href="#cL"/><use transform="matrix(0.044444444444444446,0,0,0.044444444444444446,411.91111111111144,0)" xlink:href="#cC"/><use transform="matrix(0.044444444444444446,0,0,0.044444444444444446,420.80000000000035,0)" xlink:href="#cw"/><use transform="matrix(0.044444444444444446,0,0,0.044444444444444446,428.80000000000035,0)" xlink:href="#cw"/><use transform="matrix(0.044444444444444446,0,0,0.044444444444444446,436.80000000000035,0)" xlink:href="#cy"/><use transform="matrix(0.044444444444444446,0,0,0.044444444444444446,445.6888888888892,0)" xlink:href="#cO"/><use transform="matrix(0.044444444444444446,0,0,0.044444444444444446,454.5777777777782,0)" xlink:href="#cG"/><use transform="matrix(0.044444444444444446,0,0,0.044444444444444446,463.4666666666671,0)" xlink:href="#cr"/><use transform="matrix(0.044444444444444446,0,0,0.044444444444444446,467.91111111111155,0)" xlink:href="#cp"/></g><path d="M72 4L0-261h28L100 4H72" id="cP"/><use transform="matrix(0.044444444444444446,0,0,0.044444444444444446,0,0)" xlink:href="#cP" id="J"/><path d="M106-169C34-169 62-67 57 0H25v-261h32l-1 103c12-21 28-36 61-36 89 0 53 116 60 194h-32v-121c2-32-8-49-39-48" id="cQ"/><path d="M85-194c31 0 48 13 60 33l-1-100h32l1 261h-30c-2-10 0-23-3-31C134-8 116 4 85 4 32 4 16-35 15-94c0-66 23-100 70-100zm9 24c-40 0-46 34-46 75 0 40 6 74 45 74 42 0 51-32 51-76 0-42-9-74-50-73" id="cR"/><g id="K"><use transform="matrix(0.044444444444444446,0,0,0.044444444444444446,0,0)" xlink:href="#ci"/><use transform="matrix(0.044444444444444446,0,0,0.044444444444444446,5.288888888888889,0)" xlink:href="#ci"/><use transform="matrix(0.044444444444444446,0,0,0.044444444444444446,10.577777777777778,0)" xlink:href="#cQ"/><use transform="matrix(0.044444444444444446,0,0,0.044444444444444446,19.46666666666667,0)" xlink:href="#ak"/><use transform="matrix(0.044444444444444446,0,0,0.044444444444444446,28.355555555555558,0)" xlink:href="#ai"/><use transform="matrix(0.044444444444444446,0,0,0.044444444444444446,37.24444444444445,0)" xlink:href="#cR"/><use transform="matrix(0.044444444444444446,0,0,0.044444444444444446,46.13333333333333,0)" xlink:href="#ak"/><use transform="matrix(0.044444444444444446,0,0,0.044444444444444446,55.022222222222226,0)" xlink:href="#ae"/></g><path fill="#2a00ff" d="M195 0l-74-108L45 0H8l94-129-87-119h37l69 98 67-98h37l-84 118L233 0h-38" id="cS"/><path fill="#2a00ff" d="M16-82v-28h88v28H16" id="cT"/><path fill="#2a00ff" d="M30-248c118-7 216 8 213 122C240-48 200 0 122 0H30v-248zM63-27c89 8 146-16 146-99s-60-101-146-95v194" id="cU"/><path fill="#2a00ff" d="M205 0l-28-72H64L36 0H1l101-248h38L239 0h-34zm-38-99l-47-123c-12 45-31 82-46 123h93" id="cV"/><path fill="#2a00ff" d="M194 0L95-120 63-95V0H30v-248h33v124l119-124h40L117-140 236 0h-42" id="cW"/><g id="L"><use transform="matrix(0.044444444444444446,0,0,0.044444444444444446,0,0)" xlink:href="#cp"/><use transform="matrix(0.044444444444444446,0,0,0.044444444444444446,3.022222222222222,0)" xlink:href="#cS"/><use transform="matrix(0.044444444444444446,0,0,0.044444444444444446,13.68888888888889,0)" xlink:href="#cT"/><use transform="matrix(0.044444444444444446,0,0,0.044444444444444446,18.977777777777778,0)" xlink:href="#cU"/><use transform="matrix(0.044444444444444446,0,0,0.044444444444444446,30.488888888888884,0)" xlink:href="#cy"/><use transform="matrix(0.044444444444444446,0,0,0.044444444444444446,39.37777777777778,0)" xlink:href="#cJ"/><use transform="matrix(0.044444444444444446,0,0,0.044444444444444446,52.66666666666667,0)" xlink:href="#cE"/><use transform="matrix(0.044444444444444446,0,0,0.044444444444444446,56.17777777777778,0)" xlink:href="#cG"/><use transform="matrix(0.044444444444444446,0,0,0.044444444444444446,65.06666666666668,0)" xlink:href="#cy"/><use transform="matrix(0.044444444444444446,0,0,0.044444444444444446,73.95555555555556,0)" xlink:href="#cT"/><use transform="matrix(0.044444444444444446,0,0,0.044444444444444446,79.24444444444445,0)" xlink:href="#cV"/><use transform="matrix(0.044444444444444446,0,0,0.044444444444444446,89.91111111111113,0)" xlink:href="#cs"/><use transform="matrix(0.044444444444444446,0,0,0.044444444444444446,98.8,0)" xlink:href="#cE"/><use transform="matrix(0.044444444444444446,0,0,0.044444444444444446,102.31111111111112,0)" xlink:href="#cT"/><use transform="matrix(0.044444444444444446,0,0,0.044444444444444446,107.60000000000001,0)" xlink:href="#cW"/><use transform="matrix(0.044444444444444446,0,0,0.044444444444444446,118.26666666666667,0)" xlink:href="#cF"/><use transform="matrix(0.044444444444444446,0,0,0.044444444444444446,127.15555555555557,0)" xlink:href="#cH"/><use transform="matrix(0.044444444444444446,0,0,0.044444444444444446,135.15555555555557,0)" xlink:href="#ct"/></g><path fill="#2a00ff" d="M194-70c0 46-34 64-81 66v29H91V-4C42-5 12-27 4-67l30-6c5 28 25 41 57 43v-87c-38-9-76-20-76-67 1-42 33-58 76-59v-23h22v23c45 0 67 20 76 56l-31 6c-5-23-18-35-45-37v78c41 10 81 20 81 70zm-81 41c51 7 71-66 19-77-6-2-12-4-19-6v83zM91-219c-47-6-63 57-18 69 6 2 12 3 18 5v-74" id="cX"/><path fill="#2a00ff" d="M140-251c81 0 123 46 123 126C263-46 219 4 140 4 59 4 17-45 17-125s42-126 123-126zm0 227c63 0 89-41 89-101s-29-99-89-99c-61 0-89 39-89 99S79-25 140-24" id="cY"/><path fill="#2a00ff" d="M240 0l2-218c-23 76-54 145-80 218h-23L58-218 59 0H30v-248h44l77 211c21-75 51-140 76-211h43V0h-30" id="cZ"/><path fill="#2a00ff" d="M33 0v-248h34V0H33" id="da"/><path fill="#2a00ff" d="M190 0L58-211 59 0H30v-248h39L202-35l-2-213h31V0h-41" id="db"/><path fill="#2a00ff" d="M232-93c-1 65-40 97-104 97C67 4 28-28 28-90v-158h33c8 89-33 224 67 224 102 0 64-133 71-224h33v155" id="dc"/><path fill="#2a00ff" d="M185-189c-5-48-123-54-124 2 14 75 158 14 163 119 3 78-121 87-175 55-17-10-28-26-33-46l33-7c5 56 141 63 141-1 0-78-155-14-162-118-5-82 145-84 179-34 5 7 8 16 11 25" id="dd"/><path fill="#2a00ff" d="M30 0v-248h187v28H63v79h144v27H63v87h162V0H30" id="de"/><path fill="#2a00ff" d="M233-177c-1 41-23 64-60 70L243 0h-38l-65-103H63V0H30v-248c88 3 205-21 203 71zM63-129c60-2 137 13 137-47 0-61-80-42-137-45v92" id="df"/><path fill="#2a00ff" d="M30-248c87 1 191-15 191 75 0 78-77 80-158 76V0H30v-248zm33 125c57 0 124 11 124-50 0-59-68-47-124-48v98" id="dg"/><path fill="#2a00ff" d="M137-103V0h-34v-103L8-248h37l75 118 75-118h37" id="dh"/><g id="M"><use transform="matrix(0.044444444444444446,0,0,0.044444444444444446,0,0)" xlink:href="#cX"/><use transform="matrix(0.044444444444444446,0,0,0.044444444444444446,8.88888888888889,0)" xlink:href="#cU"/><use transform="matrix(0.044444444444444446,0,0,0.044444444444444446,20.4,0)" xlink:href="#cY"/><use transform="matrix(0.044444444444444446,0,0,0.044444444444444446,32.84444444444444,0)" xlink:href="#cZ"/><use transform="matrix(0.044444444444444446,0,0,0.044444444444444446,46.13333333333333,0)" xlink:href="#da"/><use transform="matrix(0.044444444444444446,0,0,0.044444444444444446,50.57777777777778,0)" xlink:href="#db"/><use transform="matrix(0.044444444444444446,0,0,0.044444444444444446,62.08888888888889,0)" xlink:href="#cY"/><use transform="matrix(0.044444444444444446,0,0,0.044444444444444446,74.53333333333333,0)" xlink:href="#cL"/><use transform="matrix(0.044444444444444446,0,0,0.044444444444444446,83.42222222222222,0)" xlink:href="#dc"/><use transform="matrix(0.044444444444444446,0,0,0.044444444444444446,94.93333333333332,0)" xlink:href="#dd"/><use transform="matrix(0.044444444444444446,0,0,0.044444444444444446,105.60000000000001,0)" xlink:href="#de"/><use transform="matrix(0.044444444444444446,0,0,0.044444444444444446,116.26666666666667,0)" xlink:href="#df"/><use transform="matrix(0.044444444444444446,0,0,0.044444444444444446,127.77777777777776,0)" xlink:href="#cL"/><use transform="matrix(0.044444444444444446,0,0,0.044444444444444446,136.66666666666666,0)" xlink:href="#cV"/><use transform="matrix(0.044444444444444446,0,0,0.044444444444444446,147.33333333333331,0)" xlink:href="#dg"/><use transform="matrix(0.044444444444444446,0,0,0.044444444444444446,157.99999999999997,0)" xlink:href="#da"/><use transform="matrix(0.044444444444444446,0,0,0.044444444444444446,162.44444444444443,0)" xlink:href="#cL"/><use transform="matrix(0.044444444444444446,0,0,0.044444444444444446,171.33333333333331,0)" xlink:href="#cW"/><use transform="matrix(0.044444444444444446,0,0,0.044444444444444446,181.99999999999997,0)" xlink:href="#de"/><use transform="matrix(0.044444444444444446,0,0,0.044444444444444446,192.66666666666663,0)" xlink:href="#dh"/><use transform="matrix(0.044444444444444446,0,0,0.044444444444444446,203.33333333333331,0)" xlink:href="#cp"/></g><path fill="#2a00ff" d="M212-179c-10-28-35-45-73-45-59 0-87 40-87 99 0 60 29 101 89 101 43 0 62-24 78-52l27 14C228-24 195 4 139 4 59 4 22-46 18-125c-6-104 99-153 187-111 19 9 31 26 39 46" id="di"/><path fill="#2a00ff" d="M127-220V0H93v-220H8v-28h204v28h-85" id="dj"/><g id="N"><use transform="matrix(0.044444444444444446,0,0,0.044444444444444446,0,0)" xlink:href="#cp"/><use transform="matrix(0.044444444444444446,0,0,0.044444444444444446,3.022222222222222,0)" xlink:href="#di"/><use transform="matrix(0.044444444444444446,0,0,0.044444444444444446,14.533333333333333,0)" xlink:href="#cy"/><use transform="matrix(0.044444444444444446,0,0,0.044444444444444446,23.422222222222224,0)" xlink:href="#cG"/><use transform="matrix(0.044444444444444446,0,0,0.044444444444444446,32.31111111111112,0)" xlink:href="#cr"/><use transform="matrix(0.044444444444444446,0,0,0.044444444444444446,36.75555555555556,0)" xlink:href="#cF"/><use transform="matrix(0.044444444444444446,0,0,0.044444444444444446,45.644444444444446,0)" xlink:href="#cG"/><use transform="matrix(0.044444444444444446,0,0,0.044444444444444446,54.53333333333334,0)" xlink:href="#cr"/><use transform="matrix(0.044444444444444446,0,0,0.044444444444444446,58.97777777777777,0)" xlink:href="#cT"/><use transform="matrix(0.044444444444444446,0,0,0.044444444444444446,64.26666666666667,0)" xlink:href="#dj"/><use transform="matrix(0.044444444444444446,0,0,0.044444444444444446,73.11111111111111,0)" xlink:href="#cH"/><use transform="matrix(0.044444444444444446,0,0,0.044444444444444446,81.11111111111111,0)" xlink:href="#cs"/><use transform="matrix(0.044444444444444446,0,0,0.044444444444444446,90,0)" xlink:href="#cF"/><use transform="matrix(0.044444444444444446,0,0,0.044444444444444446,98.88888888888889,0)" xlink:href="#ct"/></g><path fill="#2a00ff" d="M24-231v-30h32v30H24zM-9 49c24 4 33-6 33-30v-209h32V24c2 40-23 58-65 49V49" id="dk"/><g id="O"><use transform="matrix(0.044444444444444446,0,0,0.044444444444444446,0,0)" xlink:href="#cC"/><use transform="matrix(0.044444444444444446,0,0,0.044444444444444446,8.88888888888889,0)" xlink:href="#cs"/><use transform="matrix(0.044444444444444446,0,0,0.044444444444444446,17.77777777777778,0)" xlink:href="#cs"/><use transform="matrix(0.044444444444444446,0,0,0.044444444444444446,26.666666666666668,0)" xlink:href="#cB"/><use transform="matrix(0.044444444444444446,0,0,0.044444444444444446,30.17777777777778,0)" xlink:href="#cE"/><use transform="matrix(0.044444444444444446,0,0,0.044444444444444446,33.68888888888889,0)" xlink:href="#cw"/><use transform="matrix(0.044444444444444446,0,0,0.044444444444444446,41.68888888888889,0)" xlink:href="#cC"/><use transform="matrix(0.044444444444444446,0,0,0.044444444444444446,50.57777777777778,0)" xlink:href="#cr"/><use transform="matrix(0.044444444444444446,0,0,0.044444444444444446,55.022222222222226,0)" xlink:href="#cE"/><use transform="matrix(0.044444444444444446,0,0,0.044444444444444446,58.53333333333334,0)" xlink:href="#cy"/><use transform="matrix(0.044444444444444446,0,0,0.044444444444444446,67.42222222222223,0)" xlink:href="#cG"/><use transform="matrix(0.044444444444444446,0,0,0.044444444444444446,76.31111111111112,0)" xlink:href="#cu"/><use transform="matrix(0.044444444444444446,0,0,0.044444444444444446,80.75555555555556,0)" xlink:href="#dk"/><use transform="matrix(0.044444444444444446,0,0,0.044444444444444446,84.26666666666667,0)" xlink:href="#cM"/><use transform="matrix(0.044444444444444446,0,0,0.044444444444444446,92.26666666666667,0)" xlink:href="#cy"/><use transform="matrix(0.044444444444444446,0,0,0.044444444444444446,101.15555555555557,0)" xlink:href="#cG"/><use transform="matrix(0.044444444444444446,0,0,0.044444444444444446,110.04444444444442,0)" xlink:href="#cp"/></g><path d="M206 0h-36l-40-164L89 0H53L-1-190h32L70-26l43-164h34l41 164 42-164h31" id="dl"/><g id="P"><use transform="matrix(0.044444444444444446,0,0,0.044444444444444446,0,0)" xlink:href="#ci"/><use transform="matrix(0.044444444444444446,0,0,0.044444444444444446,5.288888888888889,0)" xlink:href="#ci"/><use transform="matrix(0.044444444444444446,0,0,0.044444444444444446,10.577777777777778,0)" xlink:href="#cR"/><use transform="matrix(0.044444444444444446,0,0,0.044444444444444446,19.46666666666667,0)" xlink:href="#ai"/><use transform="matrix(0.044444444444444446,0,0,0.044444444444444446,28.355555555555558,0)" xlink:href="#cj"/><use transform="matrix(0.044444444444444446,0,0,0.044444444444444446,32.800000000000004,0)" xlink:href="#ai"/><use transform="matrix(0.044444444444444446,0,0,0.044444444444444446,41.6888888888889,0)" xlink:href="#ci"/><use transform="matrix(0.044444444444444446,0,0,0.044444444444444446,46.97777777777779,0)" xlink:href="#ae"/><use transform="matrix(0.044444444444444446,0,0,0.044444444444444446,52.26666666666668,0)" xlink:href="#ai"/><use transform="matrix(0.044444444444444446,0,0,0.044444444444444446,61.155555555555566,0)" xlink:href="#dl"/></g><path fill="#2a00ff" d="M39-94c74 12-11 154 75 146v23c-44 4-70-10-70-52C44-23 55-84 6-82v-22c81 4-7-162 84-157h24v23c-82-15-2 131-75 144" id="dm"/><g id="Q"><use transform="matrix(0.044444444444444446,0,0,0.044444444444444446,0,0)" xlink:href="#cp"/><use transform="matrix(0.044444444444444446,0,0,0.044444444444444446,3.022222222222222,0)" xlink:href="#dm"/></g><path fill="#2a00ff" d="M109-170H84l-4-78h32zm-65 0H19l-4-78h33" id="dn"/><g id="S"><use transform="matrix(0.044444444444444446,0,0,0.044444444444444446,0,0)" xlink:href="#dn"/><use transform="matrix(0.044444444444444446,0,0,0.044444444444444446,5.644444444444445,0)" xlink:href="#cD"/><use transform="matrix(0.044444444444444446,0,0,0.044444444444444446,14.533333333333333,0)" xlink:href="#cy"/><use transform="matrix(0.044444444444444446,0,0,0.044444444444444446,23.422222222222224,0)" xlink:href="#cJ"/><use transform="matrix(0.044444444444444446,0,0,0.044444444444444446,36.711111111111116,0)" xlink:href="#cE"/><use transform="matrix(0.044444444444444446,0,0,0.044444444444444446,40.22222222222223,0)" xlink:href="#cG"/><use transform="matrix(0.044444444444444446,0,0,0.044444444444444446,49.111111111111114,0)" xlink:href="#cy"/><use transform="matrix(0.044444444444444446,0,0,0.044444444444444446,58,0)" xlink:href="#cL"/><use transform="matrix(0.044444444444444446,0,0,0.044444444444444446,66.88888888888889,0)" xlink:href="#cy"/><use transform="matrix(0.044444444444444446,0,0,0.044444444444444446,75.77777777777777,0)" xlink:href="#cz"/><use transform="matrix(0.044444444444444446,0,0,0.044444444444444446,81.06666666666666,0)" xlink:href="#cv"/><use transform="matrix(0.044444444444444446,0,0,0.044444444444444446,89.95555555555555,0)" xlink:href="#dn"/></g><path d="M33-154v-36h34v36H33zM33 0v-36h34V0H33" id="do"/><use transform="matrix(0.044444444444444446,0,0,0.044444444444444446,0,0)" xlink:href="#do" id="T"/><path fill="#2a00ff" d="M27 0v-27h64v-190l-56 39v-29l58-41h29v221h61V0H27" id="dp"/><path d="M68-38c1 34 0 65-14 84H32c9-13 17-26 17-46H33v-38h35" id="dq"/><g id="U"><use transform="matrix(0.044444444444444446,0,0,0.044444444444444446,0,0)" xlink:href="#dn"/><use transform="matrix(0.044444444444444446,0,0,0.044444444444444446,5.644444444444445,0)" xlink:href="#cy"/><use transform="matrix(0.044444444444444446,0,0,0.044444444444444446,14.533333333333333,0)" xlink:href="#cz"/><use transform="matrix(0.044444444444444446,0,0,0.044444444444444446,19.822222222222223,0)" xlink:href="#cv"/><use transform="matrix(0.044444444444444446,0,0,0.044444444444444446,28.711111111111112,0)" xlink:href="#dp"/><use transform="matrix(0.044444444444444446,0,0,0.044444444444444446,37.6,0)" xlink:href="#dn"/><use transform="matrix(0.044444444444444446,0,0,0.044444444444444446,43.24444444444445,0)" xlink:href="#dq"/></g><g id="V"><use transform="matrix(0.044444444444444446,0,0,0.044444444444444446,0,0)" xlink:href="#dn"/><use transform="matrix(0.044444444444444446,0,0,0.044444444444444446,5.644444444444445,0)" xlink:href="#cz"/><use transform="matrix(0.044444444444444446,0,0,0.044444444444444446,10.933333333333334,0)" xlink:href="#cO"/><use transform="matrix(0.044444444444444446,0,0,0.044444444444444446,19.822222222222223,0)" xlink:href="#cG"/><use transform="matrix(0.044444444444444446,0,0,0.044444444444444446,28.711111111111112,0)" xlink:href="#cL"/><use transform="matrix(0.044444444444444446,0,0,0.044444444444444446,37.6,0)" xlink:href="#cE"/><use transform="matrix(0.044444444444444446,0,0,0.044444444444444446,41.111111111111114,0)" xlink:href="#cD"/><use transform="matrix(0.044444444444444446,0,0,0.044444444444444446,50,0)" xlink:href="#dn"/></g><g id="W"><use transform="matrix(0.044444444444444446,0,0,0.044444444444444446,0,0)" xlink:href="#dn"/><use transform="matrix(0.044444444444444446,0,0,0.044444444444444446,5.644444444444445,0)" xlink:href="#cX"/><use transform="matrix(0.044444444444444446,0,0,0.044444444444444446,14.533333333333333,0)" xlink:href="#cU"/><use transform="matrix(0.044444444444444446,0,0,0.044444444444444446,26.044444444444444,0)" xlink:href="#cY"/><use transform="matrix(0.044444444444444446,0,0,0.044444444444444446,38.48888888888889,0)" xlink:href="#cZ"/><use transform="matrix(0.044444444444444446,0,0,0.044444444444444446,51.77777777777778,0)" xlink:href="#da"/><use transform="matrix(0.044444444444444446,0,0,0.044444444444444446,56.22222222222222,0)" xlink:href="#db"/><use transform="matrix(0.044444444444444446,0,0,0.044444444444444446,67.73333333333333,0)" xlink:href="#cY"/><use transform="matrix(0.044444444444444446,0,0,0.044444444444444446,80.17777777777778,0)" xlink:href="#cL"/><use transform="matrix(0.044444444444444446,0,0,0.044444444444444446,89.06666666666666,0)" xlink:href="#df"/><use transform="matrix(0.044444444444444446,0,0,0.044444444444444446,100.57777777777775,0)" xlink:href="#dc"/><use transform="matrix(0.044444444444444446,0,0,0.044444444444444446,112.08888888888887,0)" xlink:href="#db"/><use transform="matrix(0.044444444444444446,0,0,0.044444444444444446,123.59999999999998,0)" xlink:href="#cL"/><use transform="matrix(0.044444444444444446,0,0,0.044444444444444446,132.48888888888888,0)" xlink:href="#da"/><use transform="matrix(0.044444444444444446,0,0,0.044444444444444446,136.93333333333334,0)" xlink:href="#cU"/><use transform="matrix(0.044444444444444446,0,0,0.044444444444444446,148.44444444444446,0)" xlink:href="#dn"/></g><path d="M76-40C78 24 84 88 6 75V52C86 64 9-79 80-94c-40-6-34-59-34-106 1-29-11-41-40-38v-23c44-4 70 10 70 52 0 47-12 108 38 105v22c-26 1-39 14-38 42" id="dr"/><g id="X"><use transform="matrix(0.044444444444444446,0,0,0.044444444444444446,0,0)" xlink:href="#dr"/><use transform="matrix(0.044444444444444446,0,0,0.044444444444444446,5.333333333333334,0)" xlink:href="#cp"/></g></defs></g></svg>